<svg width="184" height="184" viewBox="0 0 184 184" fill="none" xmlns="http://www.w3.org/2000/svg">
<path d="M91.9976 0.000976562C41.1893 0.000976562 0 41.1921 0 92.0004C0 142.809 41.1893 183.999 91.9976 183.999C142.806 183.999 184 142.807 184 92.0004C183.999 41.1903 142.806 0.000976562 91.9976 0.000976562ZM43.3936 139.132C40.9519 139.132 38.9745 137.157 38.9745 134.715V49.2839C38.9745 46.8434 40.9519 44.8666 43.3936 44.8666H140.606C143.047 44.8666 145.025 46.844 145.025 49.2839V96.5605H138.404H134.634V55.0989H49.2651V112.156H54.1405L73.8403 81.4356L87.0056 101.963L93.5438 112.156H99.2116L89.8392 97.5425L95.9474 88.0174L111.429 112.155H117.671V117.292V127.358V133.721H124.033H132.039V139.133H43.3936V139.132ZM127.123 74.24C127.123 79.289 123.028 83.3836 117.979 83.3836C112.93 83.3836 108.836 79.289 108.836 74.24C108.836 69.191 112.93 65.0963 117.979 65.0963C123.028 65.0963 127.123 69.1928 127.123 74.24ZM148.469 127.357V141.724H138.406V139.132V127.357H124.036V117.291H138.406V102.925H145.027H148.469V117.291H162.837V127.357H148.469Z" fill="#646777" fill-opacity="0.5"/>
</svg>
