<?xml version="1.0" encoding="UTF-8"?>
<svg width="27px" height="31px" viewBox="0 0 27 31" version="1.1" xmlns="http://www.w3.org/2000/svg" xmlns:xlink="http://www.w3.org/1999/xlink">
    <!-- Generator: Sketch 53.2 (72643) - https://sketchapp.com -->
    <title>Shape 2</title>
    <desc>Created with Sketch.</desc>
    <g id="Page-1" stroke="none" stroke-width="1" fill="none" fill-rule="evenodd">
        <g id="new-partner" transform="translate(-39.000000, -575.000000)" fill="#FFFFFF" fill-rule="nonzero">
            <g id="Shape-2" transform="translate(39.000000, 575.000000)">
                <path d="M25.380996,0 L1.61910582,0 C0.728587433,0 0,0.724034698 0,1.60898849 L0,29.3910115 C0,30.2759653 0.728587433,31 1.61910582,31 L25.3808942,31 C26.2714126,31 27,30.2759653 27,29.8200279 L27,2.03810606 C27,0.724135905 26.2715144,0 25.380996,0 Z M8.23780426,26.5551921 C8.23780426,27.0271202 7.84927182,27.413326 7.37427437,27.413326 L3.41246563,27.413326 C2.93746817,27.413326 2.54893574,27.0271202 2.54893574,26.5551921 L2.54893574,23.1424929 C2.54893574,22.6704636 2.93746817,22.284359 3.41246563,22.284359 L7.37427437,22.284359 C7.84927182,22.284359 8.23780426,22.6704636 8.23780426,23.1424929 L8.23780426,26.5551921 Z M8.23780426,19.3349853 C8.23780426,19.8069134 7.84927182,20.1931192 7.37427437,20.1931192 L3.41246563,20.1931192 C2.93746817,20.1931192 2.54893574,19.8069134 2.54893574,19.3349853 L2.54893574,15.9222861 C2.54893574,15.4502568 2.93746817,15.0641522 3.41246563,15.0641522 L7.37427437,15.0641522 C7.84927182,15.0641522 8.23780426,15.4502568 8.23780426,15.9222861 L8.23780426,19.3349853 Z M16.1250637,26.5551921 C16.1250637,27.0271202 15.7365312,27.413326 15.2615338,27.413326 L11.299725,27.413326 C10.8248294,27.413326 10.4361951,27.0271202 10.4361951,26.5551921 L10.4361951,23.1424929 C10.4361951,22.6704636 10.8248294,22.284359 11.299725,22.284359 L15.2615338,22.284359 C15.7365312,22.284359 16.1250637,22.6704636 16.1250637,23.1424929 L16.1250637,26.5551921 L16.1250637,26.5551921 Z M16.1250637,19.3349853 C16.1250637,19.8069134 15.7365312,20.1931192 15.2615338,20.1931192 L11.299725,20.1931192 C10.8248294,20.1931192 10.4361951,19.8069134 10.4361951,19.3349853 L10.4361951,15.9222861 C10.4361951,15.4502568 10.8248294,15.0641522 11.299725,15.0641522 L15.2615338,15.0641522 C15.7365312,15.0641522 16.1250637,15.4502568 16.1250637,15.9222861 L16.1250637,19.3349853 L16.1250637,19.3349853 Z M24.5332519,26.5551921 C24.5332519,27.0271202 24.1447194,27.413326 23.669722,27.413326 L19.6039312,27.413326 C19.1290355,27.413326 18.7404013,27.0271202 18.7404013,26.5551921 L18.7404013,15.9223873 C18.7404013,15.450358 19.1290355,15.0642534 19.6039312,15.0642534 L23.669722,15.0642534 C24.1447194,15.0642534 24.5332519,15.450358 24.5332519,15.9223873 L24.5332519,26.5551921 Z M24.5640086,9.93225009 C24.5640086,10.5222868 24.0783175,11.0049428 23.4845707,11.0049428 L3.51553111,11.0049428 C2.92188614,11.0049428 2.43609329,10.5222868 2.43609329,9.93225009 L2.43609329,4.84720685 C2.43609329,4.25727139 2.92188614,3.77451412 3.51553111,3.77451412 L23.4845707,3.77451412 C24.0783175,3.77451412 24.5640086,4.25727139 24.5640086,4.84720685 L24.5640086,9.93225009 L24.5640086,9.93225009 Z" id="Shape"></path>
            </g>
        </g>
    </g>
</svg>