<?xml version="1.0" encoding="UTF-8"?>
<svg width="512px" height="512px" viewBox="0 0 512 512" version="1.1" xmlns="http://www.w3.org/2000/svg" xmlns:xlink="http://www.w3.org/1999/xlink">
    <!-- Generator: Sketch 53.2 (72643) - https://sketchapp.com -->
    <title>Group 3</title>
    <desc>Created with Sketch.</desc>
    <g id="Page-1" stroke="none" stroke-width="1" fill="none" fill-rule="evenodd">
        <g id="Group-3" fill="#FFFFFF" fill-rule="nonzero">
            <g id="Group-2">
                <g id="Group">
                    <path d="M76,240 C88.101562,240 99.054688,235.144531 107.148438,227.347656 L151.550781,249.546875 C151.328125,251.355469 151,253.132812 151,255 C151,279.8125 171.1875,300 196,300 C220.8125,300 241,279.8125 241,255 C241,248.074219 239.296875,241.589844 236.488281,235.722656 L296.722656,175.488281 C302.589844,178.296875 309.074219,180 316,180 C340.8125,180 361,159.8125 361,135 C361,130.328125 360.082031,125.910156 358.753906,121.671875 L411.089844,82.429688 C418.230469,87.199219 426.789062,90 436,90 C460.8125,90 481,69.8125 481,45 C481,20.1875 460.8125,0 436,0 C411.1875,0 391,20.1875 391,45 C391,49.671875 391.917969,54.089844 393.246094,58.328125 L340.910156,97.570312 C333.769531,92.800781 325.210938,90 316,90 C291.1875,90 271,110.1875 271,135 C271,141.925781 272.703125,148.410156 275.511719,154.277344 L215.277344,214.511719 C209.410156,211.703125 202.925781,210 196,210 C183.898438,210 172.945312,214.855469 164.851562,222.652344 L120.449219,200.453125 C120.671875,198.644531 121,196.867188 121,195 C121,170.1875 100.8125,150 76,150 C51.1875,150 31,170.1875 31,195 C31,219.8125 51.1875,240 76,240 Z" id="Path"></path>
                    <path d="M497,482 L481,482 L481,165 C481,156.710938 474.289062,150 466,150 L406,150 C397.710938,150 391,156.710938 391,165 L391,482 L361,482 L361,255 C361,246.710938 354.289062,240 346,240 L286,240 C277.710938,240 271,246.710938 271,255 L271,482 L241,482 L241,375 C241,366.710938 234.289062,360 226,360 L166,360 C157.710938,360 151,366.710938 151,375 L151,482 L121,482 L121,315 C121,306.710938 114.289062,300 106,300 L46,300 C37.710938,300 31,306.710938 31,315 L31,482 L15,482 C6.710938,482 0,488.710938 0,497 C0,505.289062 6.710938,512 15,512 L497,512 C505.289062,512 512,505.289062 512,497 C512,488.710938 505.289062,482 497,482 Z" id="Path"></path>
                </g>
            </g>
        </g>
    </g>
</svg>