<?xml version="1.0" encoding="UTF-8"?>
<svg width="385px" height="376px" viewBox="0 0 385 376" version="1.1" xmlns="http://www.w3.org/2000/svg" xmlns:xlink="http://www.w3.org/1999/xlink">
    <!-- Generator: Sketch 53.2 (72643) - https://sketchapp.com -->
    <title>Combined Shape</title>
    <desc>Created with Sketch.</desc>
    <g id="Page-1" stroke="none" stroke-width="1" fill="none" fill-rule="evenodd">
        <g id="trees" fill="#FFFFFF" fill-rule="nonzero">
            <path d="M189.045,238.872 C185.723,238.872 182.443,238.645 179.215,238.216 L151.48,281.067 L164.385,364.702 C164.806,367.431 164.092,370.035 162.376,372.035 C160.644,374.054 158.03,375.212 155.204,375.212 L107.177,375.212 C104.352,375.212 101.738,374.055 100.006,372.036 C98.29,370.036 97.577,367.433 97.996,364.705 L111.122,279.64 L84.185,238.022 C80.52,238.58 76.781,238.872 72.989,238.872 C32.743,238.872 -1.70530257e-13,206.13 -1.70530257e-13,165.883 C-1.70530257e-13,147.147 6.944,129.639 19.65,116.093 C13.044,107.239 9.452,96.487 9.452,85.343 C9.452,56.962 32.542,33.873 60.922,33.873 C63.78,33.873 66.643,34.114 69.475,34.591 C82.834,13.672 106.087,0.824 131.017,0.824 C169.246,0.824 200.706,30.368 203.763,67.824 C204.723,67.732 205.69,67.686 206.66,67.686 C223.378,67.686 236.98,81.288 236.98,98.006 C236.98,101.816 236.259,105.587 234.872,109.11 C251.952,122.914 262.034,143.835 262.034,165.883 C262.034,206.129 229.292,238.872 189.045,238.872 Z M131.764,256.319 L150.24,227.772 C142.919,223.173 136.399,217.249 131.017,210.172 C125.895,216.907 119.744,222.601 112.852,227.1 L131.764,256.319 Z M353.077,147.496 C372.27,158.416 384.034,178.507 384.033,200.808 C384.033,234.659 356.494,262.198 322.643,262.198 C320.693,262.198 318.757,262.078 316.832,261.893 L292.8,299.024 L302.906,364.702 C303.326,367.43 302.612,370.034 300.896,372.034 C299.164,374.052 296.55,375.21 293.725,375.21 L255.598,375.21 C252.772,375.21 250.158,374.052 248.426,372.033 C246.71,370.033 245.996,367.43 246.416,364.702 L256.703,297.84 L237.197,267.702 C236.134,266.161 236.926,264.546 237.611,264.234 C245.611,260.594 253.092,256.007 259.91,250.615 C260.343,250.272 261.384,250.036 262.068,251.161 L275.095,271.166 L287.913,251.362 C282.307,247.518 277.3,242.752 273.187,237.166 C271.319,234.635 272.404,231.461 273.528,230.057 C288.25,211.634 296.033,189.442 296.033,165.882 C296.033,142.06 287.641,118.77 272.401,100.304 C271.494,99.209 270.988,97.507 270.959,96.397 C270.73,87.697 268.671,79.327 264.838,71.522 C264.037,69.891 264.122,68 265.072,66.333 C266.087,64.551 267.835,63.397 269.748,63.247 C271.353,63.121 272.956,63.058 274.517,63.058 C306.714,63.058 333.404,88.241 335.73,119.945 C346.09,123.493 353.255,133.256 353.255,144.514 C353.255,145.504 353.196,146.5 353.077,147.496 Z" id="Combined-Shape"></path>
        </g>
    </g>
</svg>