<svg width="767" height="899" viewBox="0 0 767 899" fill="none" xmlns="http://www.w3.org/2000/svg">
<path d="M325.363 335.511C362.662 335.511 392.863 305.312 392.863 268.011C392.863 230.711 362.663 200.511 325.363 200.511C288.063 200.511 257.863 230.711 257.863 268.011C257.863 305.211 288.063 335.511 325.363 335.511Z" fill="white"/>
<path d="M107.563 783.311V873.711C107.563 887.511 118.763 898.711 132.563 898.711H484.263C498.063 898.711 509.263 887.511 509.263 873.711V785.611H607.463C646.763 785.611 678.862 753.51 678.862 714.211V589.211L736.362 588.111C759.162 587.711 773.562 563.31 762.862 543.211L700.062 424.811C686.062 398.412 678.762 369.011 678.762 339.211C678.762 150.911 525.362 -1.489 336.661 0.0110015C148.562 1.511 -1.638 154.612 0.262 342.711C0.862 396.911 14.162 448.111 37.262 493.311C83.363 583.211 107.563 682.511 107.563 783.311ZM145.663 256.312C145.663 249.912 149.463 244.211 155.363 241.711L192.363 225.911C196.263 224.211 199.363 221.011 200.964 217.111C201.163 216.611 201.363 216.211 201.464 215.711C203.064 211.812 203.064 207.511 201.464 203.611L186.264 166.711C183.864 160.812 185.163 153.911 189.764 149.411L206.663 132.511C211.163 128.011 217.964 126.612 223.863 129.011L261.363 144.112C265.163 145.612 269.464 145.612 273.363 144.112C273.663 144.011 274.063 143.812 274.363 143.712C278.363 142.112 281.563 139.012 283.263 135.012L298.763 97.912C301.263 92.012 307.063 88.112 313.463 88.112H337.362C343.762 88.112 349.463 91.912 351.963 97.812L367.963 135.312C369.662 139.211 372.763 142.211 376.662 143.812C376.862 143.912 377.062 144.011 377.263 144.011C381.162 145.612 385.563 145.711 389.463 144.011L426.862 128.612C432.762 126.212 439.662 127.511 444.162 132.112L461.062 149.011C465.562 153.511 466.962 160.312 464.562 166.211L449.362 204.211C447.862 208.111 447.862 212.411 449.463 216.211C449.463 216.312 449.563 216.411 449.563 216.511C451.163 220.511 454.263 223.711 458.263 225.411L495.863 241.111C501.763 243.611 505.663 249.411 505.663 255.811V279.71C505.663 286.11 501.863 291.811 495.964 294.311L458.163 310.411C454.264 312.111 451.163 315.211 449.563 319.211L449.363 319.711C447.863 323.511 447.863 327.812 449.464 331.611L465.064 369.211C467.564 375.111 466.164 382.011 461.564 386.511L444.664 403.411C440.164 407.911 433.364 409.31 427.465 406.911L389.465 391.711C385.664 390.211 381.364 390.211 377.465 391.811C377.265 391.912 376.965 392.011 376.765 392.112C372.865 393.712 369.765 396.811 368.065 400.712L352.665 438.212C350.165 444.112 344.365 448.012 337.966 448.012H314.066C307.666 448.012 301.966 444.212 299.466 438.312L283.566 401.113C281.866 397.113 278.566 394.012 274.566 392.512C274.266 392.412 273.866 392.212 273.566 392.113C269.666 390.613 265.366 390.613 261.566 392.113L224.466 407.413C218.566 409.812 211.665 408.513 207.165 403.913L190.266 387.013C185.766 382.513 184.366 375.713 186.766 369.813L201.766 332.513C203.366 328.614 203.266 324.314 201.665 320.413C201.466 319.913 201.266 319.513 201.065 319.013C199.465 315.013 196.365 311.814 192.365 310.213L155.565 294.913C149.665 292.413 145.765 286.613 145.765 280.213V256.314H145.663V256.312Z" fill="white"/>
</svg>
