<?xml version="1.0" encoding="UTF-8"?>
<svg width="32px" height="32px" viewBox="0 0 32 32" version="1.1" xmlns="http://www.w3.org/2000/svg" xmlns:xlink="http://www.w3.org/1999/xlink">
    <!-- Generator: Sketch 53.2 (72643) - https://sketchapp.com -->
    <title>Group 2</title>
    <desc>Created with Sketch.</desc>
    <g id="Page-1" stroke="none" stroke-width="1" fill="none" fill-rule="evenodd">
        <g id="new-partner" transform="translate(-34.000000, -497.000000)" fill="#FFFFFF" fill-rule="nonzero">
            <g id="Group-2" transform="translate(34.000000, 497.000000)">
                <path d="M14.3268076,27 L10.6734232,27 C10.3015052,27 10,27.3015052 10,27.6731923 L10,31.3268076 C10,31.6984948 10.3015052,32 10.6734232,32 L14.3268076,32 C14.6984948,32 15,31.6984948 15,31.3268076 L15,27.6731923 C15,27.3015052 14.6984948,27 14.3268076,27 Z" id="Path"></path>
                <path d="M21.3267766,27 L17.6732234,27 C17.3015191,27 17,27.3015052 17,27.6731923 L17,31.3268076 C17,31.6984948 17.3015191,32 17.6732234,32 L21.3267766,32 C21.6987117,32 22,31.6984948 22,31.3268076 L22,27.6731923 C22,27.3015052 21.6987117,27 21.3267766,27 L21.3267766,27 Z" id="Path"></path>
                <path d="M19,24.3267764 L19,20.6732234 C19,20.3015191 18.6984809,20 18.3267766,20 L14.6732234,20 C14.3012883,20 14,20.3015191 14,20.6732234 L14,24.3267764 C14,24.6987116 14.3012883,24.9999999 14.6732234,24.9999999 L18.3267766,24.9999999 C18.6984809,25.0002307 19,24.6987116 19,24.3267764 L19,24.3267764 Z" id="Path"></path>
                <path d="M29.5751876,12.8522942 L16.5132437,4.1557791 C16.2012912,3.94807363 15.7984645,3.94807363 15.4865119,4.1557791 L2.42481244,12.8522942 C2.15976273,13.028906 2,13.3293948 2,13.6517736 L2,31.0448037 C2,31.5724004 2.41992673,32 2.93805618,32 L6.95704071,32 C7.47517016,32 7.89509689,31.5724004 7.89509689,31.0448037 L7.89509689,15.6300747 L24.1046588,15.6300747 L24.1046588,31.0448037 C24.1046588,31.5724004 24.5248298,32 25.042715,32 L29.0619438,32 C29.579829,32 30,31.5724004 30,31.0448037 L30,13.6517736 C30,13.3293948 29.8402373,13.0286572 29.5751876,12.8522942 Z" id="Path"></path>
                <path d="M31.9817466,10.5272597 C31.9331624,10.2894215 31.7893631,10.0803904 31.5825752,9.94587731 L16.5200214,0.153559226 C16.3625501,0.0514244901 16.181153,0.000238076343 16,0.000238076343 L16,0 C15.818847,0 15.6374499,0.051186429 15.4799786,0.153559226 L0.417424804,9.94587731 C0.21063694,10.0803904 0.0670817393,10.2894215 0.0182534398,10.5272597 C-0.0305748598,10.7648599 0.0194741316,11.0119832 0.157414062,11.2136338 L0.695013671,12 C0.888861989,11.7483533 1.12738822,11.5267042 1.40668609,11.3486231 L14.4606879,3.02523611 C15.395994,2.42933101 16.604006,2.42933101 17.5388239,3.02499799 L30.5933139,11.3486231 C30.8723676,11.5267042 31.111138,11.7481152 31.3049863,12 L31.8425859,11.2136338 C31.9805259,11.0119832 32.0305749,10.765098 31.9817466,10.5272597 Z" id="Path"></path>
            </g>
        </g>
    </g>
</svg>