<?xml version="1.0" encoding="UTF-8"?>
<svg width="35px" height="27px" viewBox="0 0 35 27" version="1.1" xmlns="http://www.w3.org/2000/svg" xmlns:xlink="http://www.w3.org/1999/xlink">
    <!-- Generator: Sketch 53.2 (72643) - https://sketchapp.com -->
    <title>Combined Shape</title>
    <desc>Created with Sketch.</desc>
    <g id="Page-1" stroke="none" stroke-width="1" fill="none" fill-rule="evenodd">
        <g id="new-partner" transform="translate(-34.000000, -646.000000)" fill="#FFFFFF" fill-rule="nonzero">
            <path d="M63.5,669 C62.6715729,669 62,668.328427 62,667.5 C62,666.671573 62.6715729,666 63.5,666 C64.3284271,666 65,666.671573 65,667.5 C65,668.328427 64.3284271,669 63.5,669 Z M49.5,669 C48.6715729,669 48,668.328427 48,667.5 C48,666.671573 48.6715729,666 49.5,666 C50.3284271,666 51,666.671573 51,667.5 C51,668.328427 50.3284271,669 49.5,669 Z M63.2936849,661.749883 C66.4403442,661.749883 69.0000684,664.273157 69,667.374941 C69,670.476726 66.4402759,673 63.2936849,673 L48.8376865,673 C46.9699663,673 45.3142292,672.107134 44.2726344,670.735825 C43.2310396,672.107066 41.5753025,673 39.7075823,673 L35.1425302,673 C34.2669808,673 33.7179167,672.066634 34.1513847,671.316896 L43.281489,655.566732 C43.5393413,655.123938 44.0668037,654.907224 44.5654184,655.037549 C45.0654003,655.168278 45.4138974,655.614644 45.4138974,656.124824 L45.4138974,662.885542 C46.3688806,662.176033 47.5523215,661.749883 48.8376865,661.749883 L63.2936849,661.749883 Z M48.8376865,670.749977 C50.7256411,670.749977 52.2614756,669.236012 52.2614756,667.374941 C52.2614756,665.513871 50.7256411,663.999906 48.8376865,663.999906 C46.9497319,663.999906 45.4138974,665.513871 45.4138974,667.374941 C45.4138974,669.236012 46.9497319,670.749977 48.8376865,670.749977 Z M63.2936849,670.749977 C65.1816395,670.749977 66.7174739,669.236012 66.7174739,667.374941 C66.7174739,665.513871 65.1816395,663.999906 63.2936849,663.999906 C61.4057302,663.999906 59.8698958,665.513871 59.8698958,667.374941 C59.8698958,669.236012 61.4057302,670.749977 63.2936849,670.749977 Z M62.76,646 C64.5466092,646 66.0000647,647.485232 66,649.310983 L66,660 C65.0163881,659.520458 63.9204744,659.243997 62.76,659.243997 L49.08,659.243997 C48.7123666,659.243997 48.3537251,659.280092 48,659.332118 L48,659.243997 C48,657.614189 48.8709218,656.191428 50.16,655.426633 L50.16,653.725693 C50.16,653.116051 50.643752,652.622032 51.24,652.622032 C51.836248,652.622032 52.32,653.116051 52.32,653.725693 L52.32,654.829354 L53.2768949,654.829354 L55.232345,646.835993 C55.3525391,646.344551 55.7842803,646 56.28,646 L62.76,646 Z M61.68,653.725693 L61.68,649.311049 C61.68,648.70154 61.196442,648.207388 60.6,648.207388 L57.1230404,648.207388 L55.5031375,654.829354 L60.6,654.829354 C61.196442,654.829354 61.68,654.335202 61.68,653.725693 Z" id="Combined-Shape"></path>
        </g>
    </g>
</svg>