<?xml version="1.0" encoding="UTF-8"?>
<svg width="33px" height="33px" viewBox="0 0 33 33" version="1.1" xmlns="http://www.w3.org/2000/svg" xmlns:xlink="http://www.w3.org/1999/xlink">
    <!-- Generator: Sketch 53.2 (72643) - https://sketchapp.com -->
    <title>Group 3</title>
    <desc>Created with Sketch.</desc>
    <g id="Page-1" stroke="none" stroke-width="1" fill="none" fill-rule="evenodd">
        <g id="new-partner" transform="translate(-36.000000, -286.000000)" fill="#FFFFFF" fill-rule="nonzero">
            <g id="Group-3" transform="translate(36.000000, 286.000000)">
                <circle id="Oval" cx="16.5" cy="4.5" r="4.5"></circle>
                <path d="M22.9906056,19.2752727 L22.0069864,11.8818182 C21.8964917,10.8091818 20.9692032,10 19.8534237,10 L18.6661478,10 C18.377995,10 18.1028416,10.1108182 17.8991848,10.3052727 L16.4995857,11.656 L15.0999866,10.3052727 C14.8963298,10.1108182 14.6211764,10 14.3330237,10 L13.1479143,10 C12.0299682,10 11.1026797,10.8091818 10.9943516,11.8546364 L10.0085659,19.2773636 C9.96956775,19.5742727 10.0648965,19.8753636 10.2707199,20.0990909 C10.4765433,20.3249091 10.7711957,20.4545455 11.0831806,20.4545455 L12.2531241,20.4545455 L13.1587471,31.1181818 C13.2670752,32.1887273 14.1965303,33 15.3144763,33 L17.6868617,33 C18.8048077,33 19.7320963,32.1887273 19.8447575,31.0993636 L20.7482139,20.4545455 L21.9159908,20.4545455 C22.2279757,20.4545455 22.5226282,20.3249091 22.7284516,20.0990909 C22.9364415,19.8753636 23.0317702,19.5742727 22.9906056,19.2752727 Z" id="Path"></path>
                <circle id="Oval" cx="26.5" cy="4.5" r="4.5"></circle>
                <path d="M6.5,0 C4.01825,0 2,2.01825 2,4.5 C2,6.98175 4.01825,9 6.5,9 C8.9795,9 11,6.98175 11,4.5 C11,2.01825 8.9795,0 6.5,0 Z" id="Path"></path>
                <path d="M32.9911024,18.872 L32.0595024,11.802 C31.9548513,10.774 31.0786548,10 30.0198319,10 L28.8953455,10 C28.6224318,10 28.3618301,10.106 28.1689437,10.292 L26.8433631,11.584 L25.5177824,10.292 C25.3248961,10.106 25.0642943,10 24.7934326,10 L23.6689463,10 C23.5417234,10 23.4268123,10.044 23.3057454,10.066 C23.5704511,10.522 23.7777013,11.016 23.8392608,11.57 L24.7688088,18.618 C24.8837199,19.476 24.6087542,20.34 24.0177833,20.99 C23.7387137,21.302 23.3816687,21.522 23,21.694 L23.6812582,28.2 C23.7859093,29.226 24.6641577,30 25.7229807,30 L27.9699014,30 C29.0287243,30 29.9069728,29.224 30.0136759,28.182 L30.8673006,20 L31.9733191,20 C32.2688046,20 32.5478742,19.876 32.7428125,19.66 C32.9398028,19.446 33.0300901,19.158 32.9911024,18.872 Z" id="Path"></path>
                <path d="M8.9705219,20.98 C8.38807174,20.338 8.11735547,19.476 8.22810304,18.622 L9.16125382,11.52 C9.21457672,10.988 9.41556305,10.508 9.67192315,10.064 C9.55707383,10.044 9.44837714,10 9.32737517,10 L8.20349247,10 C7.93072531,10 7.67026345,10.106 7.47748065,10.292 L6.15261162,11.584 L4.82774259,10.292 C4.63495979,10.106 4.37449792,10 4.10378165,10 L2.97983485,10 C1.92158034,10 1.04380333,10.774 0.94125929,11.774 L0.00810850387,18.874 C-0.0288073514,19.158 0.0614314059,19.446 0.256265087,19.66 C0.451098767,19.876 0.732069444,20 1.0253454,20 L2.13282106,20 L2.99008926,28.2 C3.0926333,29.224 3.97246118,30 5.0307157,30 L7.27643023,30 C8.33468475,30 9.21246175,29.224 9.31910756,28.182 L10,21.692 C9.61654937,21.518 9.25764522,21.296 8.9705219,20.98 Z" id="Path"></path>
            </g>
        </g>
    </g>
</svg>