<?xml version="1.0" encoding="UTF-8"?>
<svg width="32px" height="31px" viewBox="0 0 32 31" version="1.1" xmlns="http://www.w3.org/2000/svg" xmlns:xlink="http://www.w3.org/1999/xlink">
    <!-- Generator: Sketch 53.2 (72643) - https://sketchapp.com -->
    <title>Combined Shape Copy</title>
    <desc>Created with Sketch.</desc>
    <g id="Page-1" stroke="none" stroke-width="1" fill="none" fill-rule="evenodd">
        <g id="new-partner" transform="translate(-31.000000, -427.000000)" fill="#FFFFFF" fill-rule="nonzero">
            <path d="M42,458 C39.790861,458 38,456.209139 38,454 C38,451.790861 39.790861,450 42,450 C44.209139,450 46,451.790861 46,454 C46,456.209139 44.209139,458 42,458 Z M54.3917235,450.019519 C56.2909252,450.206412 57.7935961,451.709065 57.9804816,453.608415 C58.1968121,455.806884 56.5901073,457.76445 54.3917235,457.980789 C54.1312255,458.006404 53.8687745,458.006404 53.6082765,457.980789 C51.4098927,457.76445 49.8031879,455.806884 50.0195184,453.608415 C50.2358489,451.409947 52.1933397,449.80318 54.3917235,450.019519 Z M62.7434777,435.48036 C62.9669094,435.730284 63.0511191,436.069416 62.9694099,436.390209 L60.1829125,447.16282 C60.0615622,447.651508 59.6108744,447.996966 59.0909067,447.999881 L39.3971477,447.999881 C38.8605587,448.007629 38.3975888,447.637363 38.305142,447.126426 L34.8031925,431.586207 L31,431.586207 L31,429.40257 L35.7069214,429.40257 C36.2268891,429.405413 36.6776504,429.750942 36.7989271,430.239631 L37.8909329,435.043633 L41.0916394,435.043633 L41.0916394,434.970845 C41.0916394,434.970489 41.0916394,434.970134 41.0916394,434.969779 C41.0919336,430.567887 44.7842928,426.999716 49.3386805,427 C53.8931417,427.000284 57.5849861,430.568953 57.5846919,434.970845 L57.5846919,435.043633 L61.8774042,435.043633 C62.224319,435.03688 62.5507881,435.201506 62.7434777,435.48036 Z M49.3381657,440.757484 C52.6362466,440.737581 55.3048504,438.158443 55.3253696,434.970845 C55.3253696,431.775001 52.6447779,429.184206 49.3381657,429.184206 C46.0315534,429.184206 43.3509617,431.775001 43.3509617,434.970845 C43.3509617,438.166689 46.0315534,440.757484 49.3381657,440.757484 Z M48.6147541,435.473001 L52.4877049,432 L54,433.543556 L49.352459,437.718174 C49.1467805,437.910502 48.8659628,438.01225 48.5778689,437.998821 C48.2859567,437.994847 48.0075884,437.881382 47.8032787,437.683093 L45,434.98187 L46.5860656,433.508475 L48.6147541,435.473001 Z" id="Combined-Shape-Copy"></path>
        </g>
    </g>
</svg>