<?xml version="1.0" encoding="UTF-8"?>
<svg width="29px" height="30px" viewBox="0 0 29 30" version="1.1" xmlns="http://www.w3.org/2000/svg" xmlns:xlink="http://www.w3.org/1999/xlink">
    <!-- Generator: Sketch 53.2 (72643) - https://sketchapp.com -->
    <title>Combined Shape</title>
    <desc>Created with Sketch.</desc>
    <g id="Page-1" stroke="none" stroke-width="1" fill="none" fill-rule="evenodd">
        <g id="new-partner" transform="translate(-34.000000, -357.000000)" fill="#FFFFFF" fill-rule="nonzero">
            <path d="M54.84375,357 C53.7074563,358.129395 53.0427189,359.677559 53.0427189,361.306641 C53.0427189,369.578203 53.0475822,377.849531 53.0479337,386.121094 C53.0479337,386.605195 52.6531342,387 52.169039,387 L34.8788947,387 C34.3935691,387 34,386.606484 34,386.121094 L34,361.21875 C34,358.894043 35.8940181,357 38.2186947,357 L54.84375,357 Z M37.5175124,382.3125 C38.0016077,382.3125 38.3964658,381.917637 38.3964072,381.433594 C38.3964072,380.949492 38.0015491,380.554688 37.5175124,380.554688 C37.0334758,380.554688 36.6386177,380.949492 36.6386177,381.433594 C36.6386177,381.917695 37.0334172,382.3125 37.5175124,382.3125 Z M37.5175124,378.796875 C38.0016077,378.796875 38.3964072,378.40207 38.3964072,377.917969 C38.3964072,377.433867 38.0015491,377.039062 37.5175124,377.039062 C37.0334758,377.039062 36.6386177,377.433926 36.6386177,377.917969 C36.6386177,378.402012 37.0334172,378.796875 37.5175124,378.796875 Z M37.5175124,375.28125 C38.0016077,375.28125 38.3964072,374.886445 38.3964072,374.402344 C38.3964072,373.918242 38.0015491,373.523438 37.5175124,373.523438 C37.0334758,373.523438 36.6386177,373.918301 36.6386177,374.402344 C36.6386177,374.886387 37.0334172,375.28125 37.5175124,375.28125 Z M49.5290736,382.3125 C50.0144579,382.3125 50.4079683,381.918984 50.4079683,381.433594 C50.4079683,380.948203 50.0144579,380.554688 49.5290736,380.554688 L41.0330913,380.554688 C40.5477071,380.554688 40.1541966,380.948203 40.1541966,381.433594 C40.1541966,381.918984 40.5477071,382.3125 41.0330913,382.3125 L49.5290736,382.3125 Z M49.5290736,378.796875 C50.0144579,378.796875 50.4079683,378.403359 50.4079683,377.917969 C50.4079683,377.432578 50.0144579,377.039062 49.5290736,377.039062 L41.0330913,377.039062 C40.5477071,377.039062 40.1541966,377.432578 40.1541966,377.917969 C40.1541966,378.403359 40.5477071,378.796875 41.0330913,378.796875 L49.5290736,378.796875 Z M49.5290736,375.28125 C50.0144579,375.28125 50.4079683,374.887734 50.4079683,374.402344 C50.4079683,373.916953 50.0144579,373.523438 49.5290736,373.523438 L41.0330913,373.523438 C40.5477071,373.523438 40.1541966,373.916953 40.1541966,374.402344 C40.1541966,374.887734 40.5477071,375.28125 41.0330913,375.28125 L49.5290736,375.28125 Z M61.8026403,358.274778 C62.541419,359.06136 63,360.147099 63,361.342007 L63,372.477512 C63,372.966889 62.6273648,373.363636 62.1677296,373.363636 L55.6760204,373.363636 C55.2163852,373.363636 54.84375,372.966889 54.84375,372.477512 L54.84375,361.342007 C54.84375,360.147039 55.3022755,359.061301 56.0410542,358.274778 C56.7797774,357.488195 57.7995306,357 58.921875,357 C60.0442194,357 61.0639171,357.488254 61.8026403,358.274778 Z" id="Combined-Shape"></path>
        </g>
    </g>
</svg>