<?xml version="1.0" encoding="UTF-8"?>
<svg width="32px" height="32px" viewBox="0 0 32 32" version="1.1" xmlns="http://www.w3.org/2000/svg" xmlns:xlink="http://www.w3.org/1999/xlink">
    <!-- Generator: Sketch 53.2 (72643) - https://sketchapp.com -->
    <title>Shape</title>
    <desc>Created with Sketch.</desc>
    <g id="Page-1" stroke="none" stroke-width="1" fill="none" fill-rule="evenodd">
        <g id="new-partner" transform="translate(-36.000000, -728.000000)" fill="#FFFFFF" fill-rule="nonzero">
            <path d="M67.8994871,742.2237 C67.8489745,741.773937 67.3243361,741.435577 66.870692,741.435577 C65.4045829,741.435577 64.1034352,740.575076 63.5577614,739.243224 C63.0007396,737.879404 63.3601398,736.28918 64.4524561,735.287107 C64.7964949,734.97255 64.8384273,734.445843 64.5500214,734.08022 C63.7993913,733.127275 62.9466289,732.26636 62.0152607,731.520306 C61.6508785,731.22803 61.1154456,731.268716 60.7992233,731.618701 C59.8455742,732.674883 58.132438,733.067353 56.8085944,732.515044 C55.4314703,731.935611 54.5622395,730.539684 54.6476265,729.04135 C54.6757197,728.570414 54.3314041,728.161199 53.8621219,728.106535 C52.666843,727.968146 51.4610464,727.964133 50.2623078,728.097125 C49.7989764,728.148328 49.4549375,728.547856 49.4702989,729.012842 C49.5221953,730.496507 48.6431388,731.8678 47.2793002,732.426475 C45.9713715,732.960794 44.2701369,732.57123 43.3184253,731.52432 C43.0038636,731.179455 42.4778413,731.137108 42.110968,731.423158 C41.1521985,732.175577 40.2801999,733.037046 39.5226502,733.982241 C39.2274632,734.349662 39.2710563,734.882182 39.6180013,735.197847 C40.7319065,736.206561 41.0910299,737.810486 40.512696,739.190221 C39.9605178,740.505605 38.5947418,741.352959 37.0313441,741.352959 C36.5240045,741.336629 36.1629437,741.67748 36.1068955,742.138868 C35.9662907,743.340497 35.9647684,744.565513 36.1001144,745.776967 C36.1506269,746.228668 36.6907651,746.564122 37.1493913,746.564122 C38.5429837,746.528695 39.8801129,747.390856 40.44184,748.756337 C41.0007993,750.120157 40.640984,751.709689 39.5468686,752.713145 C39.2046288,753.027703 39.1608974,753.553164 39.4498568,753.918372 C40.1928755,754.865366 41.0464682,755.726835 41.9806042,756.479254 C42.347339,756.774576 42.8806961,756.733197 43.1985791,756.382797 C44.1559647,755.324124 45.8688241,754.932346 47.1872705,755.485762 C48.5684079,756.063673 49.4372235,757.459461 49.3523902,758.95821 C49.3245737,759.429147 49.6697196,759.839608 50.1373412,759.893026 C50.7490272,759.964573 51.3638963,760 51.9807028,760 C52.5660947,760 53.151625,759.968032 53.7371553,759.902851 C54.2010403,759.851647 54.5445255,759.451704 54.5288874,758.98658 C54.4753303,757.503607 55.3563243,756.132175 56.7185021,755.574608 C58.0351495,755.036829 59.7287726,755.430407 60.6810378,756.475794 C60.9972601,756.819967 61.5200995,756.86176 61.888495,756.576818 C62.8456038,755.826337 63.7159418,754.965282 64.4768128,754.017597 C64.7722766,753.650867 64.7303443,753.117655 64.3814618,752.801437 C63.2678333,751.793414 62.9067724,750.188798 63.4851064,748.810447 C64.0287044,747.512776 65.343691,746.641481 66.7580421,746.641481 L66.9559405,746.64674 C67.4151203,746.683967 67.837073,746.330384 67.8925676,745.861938 C68.0338643,744.659202 68.0353866,743.43557 67.8994871,742.2237 Z M51.9999391,753.224215 C46.9053691,753.224215 42.7756577,749.094559 42.7756577,744.000195 C42.7756577,738.905832 46.9055074,734.776176 51.9999391,734.776176 C57.0943708,734.776176 61.2242206,738.905832 61.2242206,744.000195 C61.2242206,745.729362 60.7474652,747.34671 59.9194748,748.729766 L55.8804092,744.690616 C56.1728283,744.001164 56.3272722,743.253727 56.3271338,742.482349 C56.3271338,740.971836 55.7388357,739.55183 54.6705993,738.483885 C53.6026397,737.41594 52.1826146,736.827788 50.6723589,736.827788 C50.1683406,736.827788 49.666675,736.894768 49.1813395,737.026929 C48.9687716,737.084914 48.7949532,737.260114 48.7383514,737.473094 C48.6805042,737.690918 48.7456861,737.914139 48.9159065,738.084496 C48.9159065,738.084496 50.9099754,740.093899 51.5771561,740.760932 C51.6470433,740.830818 51.6469049,740.997577 51.6370792,741.057637 L51.6308516,741.101507 C51.5635938,741.834967 51.4339219,742.715395 51.326946,743.053755 C51.3125534,743.068009 51.2989912,743.080049 51.2843218,743.094718 C51.2689604,743.11008 51.2548446,743.124887 51.2400368,743.14011 C50.8972435,743.250129 50.0032408,743.381321 49.2581462,743.448025 L49.2582846,743.444011 L49.2247941,743.452453 C49.2188433,743.453145 49.2077721,743.453975 49.1931027,743.453975 C49.1125594,743.453975 48.9940971,743.431418 48.8864293,743.32389 C48.1919857,742.629456 46.2761074,740.727304 46.2761074,740.727304 C46.1042264,740.555979 45.9279168,740.519998 45.8104233,740.519998 C45.5365485,740.519998 45.2913205,740.717893 45.2140986,741.001728 C44.6866923,742.953424 45.24579,745.05278 46.6735649,746.480674 C47.7418013,747.548757 49.1619648,748.136909 50.6724973,748.136909 C51.443886,748.136909 52.1913332,747.982606 52.8806564,747.690191 L56.9635917,751.773071 C55.5301428,752.690311 53.8279394,753.224215 51.9999391,753.224215 Z" id="Shape"></path>
        </g>
    </g>
</svg>