<?xml version="1.0" encoding="UTF-8"?>
<svg width="107px" height="107px" viewBox="0 0 107 107" version="1.1" xmlns="http://www.w3.org/2000/svg" xmlns:xlink="http://www.w3.org/1999/xlink">
    <!-- Generator: Sketch 53.2 (72643) - https://sketchapp.com -->
    <title>analysis 2</title>
    <desc>Created with Sketch.</desc>
    <g id="Page-1" stroke="none" stroke-width="1" fill="none" fill-rule="evenodd">
        <g id="analysis-2" fill-rule="nonzero">
            <g id="analysis">
                <path d="M91.2809423,93 C90.8407378,93 90.4009579,92.8321117 90.0649677,92.4965475 L74.5035077,76.9349404 C73.8321641,76.2631751 73.8321641,75.1747668 74.5035077,74.503426 C75.175488,73.831873 76.2639009,73.8325097 76.9350323,74.503426 L92.4964923,90.0650331 C93.1678359,90.7367984 93.1678359,91.8252067 92.4964923,92.4967597 C92.1609266,92.8321117 91.7209345,93 91.2809423,93 Z" id="Path" fill="#393E46"></path>
                <path d="M78.5235733,13.4730827 C69.8334061,4.78493677 58.279103,0 45.989193,0 C33.6992831,0 22.14498,4.78493677 13.4546034,13.4730827 C-4.48486779,31.4085903 -4.48486779,60.591619 13.4546034,78.5271266 C22.14498,87.2150632 33.6990737,92 45.989193,92 C58.2793123,92 69.8334061,87.2150632 78.5237827,78.5271266 C87.2141593,69.8385621 92,58.2871559 92,45.9998954 C92,33.7126348 87.21395,22.1614379 78.5235733,13.4730827 Z" id="Path" fill="#5ACAFF"></path>
                <path d="M106.500525,96.3670073 L93.6332156,83.4994581 C92.9666521,82.833514 91.8866717,82.833514 91.2203187,83.4994581 L83.4997647,91.2201561 C82.8334118,91.8867321 82.8334118,92.9667326 83.4997647,93.6328874 L96.3670739,106.500437 C96.7002504,106.833409 97.1370444,107 97.5736277,107 C98.010211,107 98.4467944,106.833409 98.7801814,106.500437 L106.500735,98.7797386 C107.166457,98.1135838 107.166457,97.0333727 106.500525,96.3670073 Z" id="Path" fill="#9BAAAB"></path>
                <path d="M87.3532409,87 L83.5115847,90.8417494 C82.8294718,91.5243102 82.8294718,92.6302095 83.5115847,93.3123389 L96.6873829,106.488457 C97.0285472,106.829414 97.4758131,107 97.9228633,107 C98.3699136,107 98.8169639,106.829414 99.1583438,106.488457 L103,102.646707 L87.3532409,87 Z" id="Path" fill="#687F82"></path>
                <path d="M13.2767144,14 C-4.46048477,31.8487702 -4.42591826,60.7948373 13.3829127,78.5988502 C22.0274547,87.2405361 33.5206101,92 45.745909,92 C57.9201911,92 69.3679519,87.27884 78,78.7048104 L13.2767144,14 Z" id="Path" fill="#229CD6"></path>
                <path d="M68.3479279,22.6543302 C55.4782541,9.78188992 34.5377893,9.78188992 21.6679061,22.6543302 C15.4335461,28.8899224 12,37.1810088 12,45.9998429 C12,54.8186771 15.4335461,63.1097634 21.6676968,69.3453556 C28.102429,75.7815758 36.5551206,79 45.0076029,79 C53.4602946,79 61.9127769,75.7817852 68.3477185,69.3453556 C81.2173923,56.4724965 81.2173923,35.5271894 68.3479279,22.6543302 Z" id="Path" fill="#E6EAEA"></path>
                <path d="M22.520417,22 C16.3806404,28.1971042 13,36.4077042 13,45.1384139 C13,53.9202169 16.4190022,62.1764881 22.6267461,68.3858964 C29.0342219,74.7950903 37.4511095,78 45.8677885,78 C54.2373492,78 62.6058675,74.8299172 69,68.4922541 L22.520417,22 Z" id="Path" fill="#CDD4D5"></path>
                <path d="M33.2352044,33 L24.7647956,33 C23.7901387,33 23,33.759011 23,34.6957386 L23,57.3042614 C23,58.240989 23.7901387,59 24.7647956,59 L33.2352044,59 C34.2098613,59 35,58.240989 35,57.3042614 L35,34.6955293 C35,33.759011 34.2098613,33 33.2352044,33 Z" id="Path" fill="#9BAAAB"></path>
                <path d="M49.2352044,36 L40.7647956,36 C39.7901387,36 39,36.7496584 39,37.6748436 L39,57.3251564 C39,58.2503416 39.7901387,59 40.7647956,59 L49.2352044,59 C50.2098613,59 51,58.2503416 51,57.3251564 L51,37.6748436 C51,36.7494517 50.2098613,36 49.2352044,36 Z" id="Path" fill="#B73545"></path>
                <path d="M65.2353902,27 L56.7648276,27 C55.7899352,27 55,27.7487244 55,28.6727569 L55,56.3272431 C55,57.2512756 55.7899352,58 56.7648276,58 L65.2353902,58 C66.2102826,58 67,57.2512756 67,56.3272431 L67,28.6727569 C67.0002178,27.7487244 66.2102826,27 65.2353902,27 Z" id="Path" fill="#FF8C29"></path>
                <path d="M69.3148799,59 L21.6851201,59 C20.7544662,59 20,58.1047466 20,56.9998766 C20,55.8950065 20.7544662,55 21.6851201,55 L69.3150879,55 C70.2459498,55 71,55.8952534 71,56.9998766 C71,58.1044997 70.2457418,59 69.3148799,59 Z" id="Path" fill="#393E46"></path>
            </g>
        </g>
    </g>
</svg>