<svg width="107" height="108" viewBox="0 0 107 108" fill="none" xmlns="http://www.w3.org/2000/svg">
<path fill-rule="evenodd" clip-rule="evenodd" d="M69 0H0V107H69V0ZM15.224 22L16.148 19.9H20.612L21.536 22H22.796L18.98 13.6H17.792L13.988 22H15.224ZM18.38 14.824L20.192 18.94H16.568L18.38 14.824ZM25.7411 21.808C26.3331 22 26.9451 22.096 27.5771 22.096C28.2891 22.096 28.8891 21.992 29.3771 21.784C29.8651 21.568 30.2291 21.28 30.4691 20.92C30.7091 20.552 30.8291 20.148 30.8291 19.708C30.8291 19.18 30.6891 18.76 30.4091 18.448C30.1371 18.136 29.8091 17.904 29.4251 17.752C29.0411 17.6 28.5331 17.448 27.9011 17.296C27.4131 17.184 27.0251 17.08 26.7371 16.984C26.4571 16.88 26.2211 16.74 26.0291 16.564C25.8371 16.38 25.7411 16.144 25.7411 15.856C25.7411 15.464 25.9091 15.144 26.2451 14.896C26.5891 14.648 27.1011 14.524 27.7811 14.524C28.1651 14.524 28.5571 14.584 28.9571 14.704C29.3571 14.816 29.7331 14.984 30.0851 15.208L30.4811 14.248C30.1371 14.008 29.7251 13.824 29.2451 13.696C28.7651 13.568 28.2771 13.504 27.7811 13.504C27.0691 13.504 26.4731 13.612 25.9931 13.828C25.5131 14.044 25.1531 14.332 24.9131 14.692C24.6811 15.052 24.5651 15.456 24.5651 15.904C24.5651 16.44 24.7011 16.868 24.9731 17.188C25.2531 17.5 25.5851 17.732 25.9691 17.884C26.3611 18.036 26.8731 18.188 27.5051 18.34C28.0091 18.46 28.3971 18.568 28.6691 18.664C28.9491 18.76 29.1811 18.9 29.3651 19.084C29.5571 19.26 29.6531 19.492 29.6531 19.78C29.6531 20.172 29.4811 20.488 29.1371 20.728C28.7931 20.96 28.2731 21.076 27.5771 21.076C27.0491 21.076 26.5331 20.988 26.0291 20.812C25.5331 20.628 25.1251 20.392 24.8051 20.104L24.3611 21.04C24.6971 21.352 25.1571 21.608 25.7411 21.808ZM34.2742 21.808C34.8662 22 35.4782 22.096 36.1102 22.096C36.8222 22.096 37.4222 21.992 37.9102 21.784C38.3982 21.568 38.7622 21.28 39.0022 20.92C39.2422 20.552 39.3622 20.148 39.3622 19.708C39.3622 19.18 39.2222 18.76 38.9422 18.448C38.6702 18.136 38.3422 17.904 37.9582 17.752C37.5742 17.6 37.0662 17.448 36.4342 17.296C35.9462 17.184 35.5582 17.08 35.2702 16.984C34.9902 16.88 34.7542 16.74 34.5622 16.564C34.3702 16.38 34.2742 16.144 34.2742 15.856C34.2742 15.464 34.4422 15.144 34.7782 14.896C35.1222 14.648 35.6342 14.524 36.3142 14.524C36.6982 14.524 37.0902 14.584 37.4902 14.704C37.8902 14.816 38.2662 14.984 38.6182 15.208L39.0142 14.248C38.6702 14.008 38.2582 13.824 37.7782 13.696C37.2982 13.568 36.8102 13.504 36.3142 13.504C35.6022 13.504 35.0062 13.612 34.5262 13.828C34.0462 14.044 33.6862 14.332 33.4462 14.692C33.2142 15.052 33.0982 15.456 33.0982 15.904C33.0982 16.44 33.2342 16.868 33.5062 17.188C33.7862 17.5 34.1182 17.732 34.5022 17.884C34.8942 18.036 35.4062 18.188 36.0382 18.34C36.5422 18.46 36.9302 18.568 37.2022 18.664C37.4822 18.76 37.7142 18.9 37.8982 19.084C38.0902 19.26 38.1862 19.492 38.1862 19.78C38.1862 20.172 38.0142 20.488 37.6702 20.728C37.3262 20.96 36.8062 21.076 36.1102 21.076C35.5822 21.076 35.0662 20.988 34.5622 20.812C34.0662 20.628 33.6582 20.392 33.3382 20.104L32.8942 21.04C33.2302 21.352 33.6902 21.608 34.2742 21.808ZM48.2913 22V20.956H43.3953V18.244H47.6073V17.224H43.3953V14.644H48.1233V13.6H42.1953V22H48.2913ZM50.1024 14.644H52.9824V22H54.1704V14.644H57.0504V13.6H50.1024V14.644Z" fill="#6E7786"/>
<path fill-rule="evenodd" clip-rule="evenodd" d="M69 107H35V21.9934C35.3629 22.0618 35.733 22.096 36.1102 22.096C36.8221 22.096 37.4222 21.992 37.9102 21.784C38.3982 21.568 38.7622 21.28 39.0022 20.92C39.2422 20.552 39.3622 20.148 39.3622 19.708C39.3622 19.18 39.2222 18.76 38.9421 18.448C38.6702 18.136 38.3422 17.904 37.9581 17.752C37.5742 17.6 37.0662 17.448 36.4342 17.296C35.9462 17.184 35.5582 17.08 35.2701 16.984C35.175 16.9487 35.085 16.9091 35 16.8655V14.7644C35.3295 14.6041 35.7676 14.524 36.3142 14.524C36.6982 14.524 37.0902 14.584 37.4902 14.704C37.8901 14.816 38.2662 14.984 38.6182 15.208L39.0142 14.248C38.6702 14.008 38.2582 13.824 37.7782 13.696C37.2982 13.568 36.8102 13.504 36.3142 13.504C35.8203 13.504 35.3822 13.556 35 13.6599V0H69V107ZM35 18.0569V20.942C35.364 21.0313 35.734 21.076 36.1102 21.076C36.8062 21.076 37.3262 20.96 37.6702 20.728C38.0142 20.488 38.1862 20.172 38.1862 19.78C38.1862 19.492 38.0902 19.26 37.8982 19.084C37.7142 18.9 37.4822 18.76 37.2021 18.664C36.9302 18.568 36.5422 18.46 36.0382 18.34C35.6459 18.2456 35.2998 18.1513 35 18.0569ZM48.2913 20.956V22H42.1953V13.6H48.1233V14.644H43.3953V17.224H47.6073V18.244H43.3953V20.956H48.2913ZM52.9824 14.644H50.1024V13.6H57.0504V14.644H54.1704V22H52.9824V14.644Z" fill="#393E46"/>
<path d="M99.4145 39C98.3821 39 51.8978 39.0017 51.405 39.0017C47.3163 39.0017 44 42.3155 44 46.4041V99.9496C44 104.038 47.3163 107.352 51.405 107.352C51.6311 107.352 98.3847 107.353 99.4145 107.353C103.504 107.353 106.819 104.038 106.819 99.9487V46.4041C106.819 42.3155 103.504 39 99.4145 39Z" fill="#D95767"/>
<path d="M57.6988 107.352H51.405C47.3163 107.352 44 104.038 44 99.9497V46.4034C44 42.3148 47.3163 39.001 51.405 39.001H57.6988C53.6077 39.001 50.2939 42.3148 50.2939 46.4034V99.9497C50.2939 104.038 53.6077 107.352 57.6988 107.352V107.352Z" fill="#B6404E"/>
<path d="M99 58H68V65H99V58Z" fill="#E5E5E5"/>
<path d="M99 71H68V78H99V71Z" fill="#E5E5E5"/>
<path d="M99 84H68V91H99V84Z" fill="#E5E5E5"/>
<path d="M63 58H56V65H63V58Z" fill="white"/>
<path d="M63 71H56V78H63V71Z" fill="white"/>
<path d="M63 84H56V91H63V84Z" fill="white"/>
<path d="M100 58H78V65H100V58Z" fill="white"/>
<path d="M100 71H78V78H100V71Z" fill="white"/>
<path d="M100 84H78V91H100V84Z" fill="white"/>
</svg>
