<?xml version="1.0" encoding="UTF-8"?>
<svg width="131px" height="131px" viewBox="0 0 131 131" version="1.1" xmlns="http://www.w3.org/2000/svg" xmlns:xlink="http://www.w3.org/1999/xlink">
    <!-- Generator: Sketch 53.2 (72643) - https://sketchapp.com -->
    <title>backpack</title>
    <desc>Created with Sketch.</desc>
    <g id="Page-1" stroke="none" stroke-width="1" fill="none" fill-rule="evenodd">
        <g id="backpack" fill-rule="nonzero">
            <path d="M112.577979,74 L18.4217613,74 C8.2899485,74 0,82.2929463 0,92.4286828 L0,106.761843 C0,112.392894 4.60544033,117 10.2344562,117 L120.765544,117 C126.39456,117 131,112.392894 131,106.761843 L131,92.4286828 C130.99974,82.2929463 122.710051,74 112.577979,74 Z" id="Path" fill="#EEDD33"></path>
            <path d="M0,90 L131,90 C129.97508,80.9999841 122.184597,74 112.651906,74 L18.3480942,74 C8.81540326,73.9997461 1.02491979,80.9997302 0,90 Z" id="Path" fill="#D7B354"></path>
            <path d="M0,90 L131,90 C130.794912,88.5999746 130.48754,87.2999873 130.077364,86 L0.922375754,86 C0.512459893,87.2999873 0.205088063,88.5999746 0,90 Z" id="Path" fill="#C19D3D"></path>
            <path d="M118,48.9310974 C118,28.516563 101.590484,12 81.3076824,12 L48.6923176,12 C28.4097744,12 12,28.5163025 12,48.9310974 L12,121.767291 C12,126.896516 16.0769529,131 21.1730147,131 L108.826726,131 C113.922788,131 117.999741,126.896516 117.999741,121.767291 L118,48.9310974 L118,48.9310974 Z" id="Path" fill="#963BF4"></path>
            <path d="M48.6924072,12 C28.4098145,12 12,28.5163025 12,48.9310974 L12,121.767291 C12,126.896516 16.0769629,131 21.1730371,131 L65,131 L65,12 L48.6924072,12 Z" id="Path" fill="#B977FD"></path>
            <path d="M75.5713112,12.2106623 C73.5186522,8.54761862 69.5160062,6.10533115 65.0002606,6.10533115 C60.484515,6.10533115 56.481869,8.54736026 54.42921,12.2106623 L47.5527893,12.2106623 C50.1185479,5.08764678 56.8922966,0 65.0002606,0 C73.1082246,0 79.8819733,5.08764678 82.4477319,12.2106623 L75.5713112,12.2106623 Z M31.1315172,65.1230155 L98.8684828,65.1230155 C101.742258,65.1230155 104,67.3617144 104,70.2106623 L104,110.912353 C104,113.761559 101.741997,116 98.8684828,116 L31.1315172,116 C28.2577425,116 26,113.761301 26,110.912353 L26,70.2106623 C26,67.3614561 28.2580031,65.1230155 31.1315172,65.1230155 Z" id="Shape" fill="#EEDD33"></path>
            <path d="M38.0177418,76 L92.9822582,76 C93.592955,76 94,76.3999238 94,76.9999365 L94,79.0000635 C94,79.6000762 93.592955,80 92.9822582,80 L38.0177418,80 C37.407045,80 37,79.6000762 37,79.0000635 L37,76.9999365 C37,76.4999683 37.407045,76 38.0177418,76 Z" id="Path" fill="#C19D3D"></path>
            <path d="M31.0000564,110.900052 L31.0000564,70.0999482 C31.0000564,67.2438529 33.2001636,65 36,65 L31.9999436,65 C29.1998533,65 27,67.2441119 27,70.0999482 L27,110.900052 C27,113.756147 29.2001072,116 31.9999436,116 L36,116 C33.1999097,116.000259 31.0000564,113.756147 31.0000564,110.900052 Z" id="Path" fill="#DCB757"></path>
        </g>
    </g>
</svg>