<?xml version="1.0" encoding="UTF-8"?>
<svg width="26px" height="26px" viewBox="0 0 26 26" version="1.1" xmlns="http://www.w3.org/2000/svg" xmlns:xlink="http://www.w3.org/1999/xlink">
    <!-- Generator: Sketch 53.2 (72643) - https://sketchapp.com -->
    <title>Combined Shape</title>
    <desc>Created with Sketch.</desc>
    <g id="Page-1" stroke="none" stroke-width="1" fill="none" fill-rule="evenodd">
        <g id="notif-error" transform="translate(-706.000000, -43.000000)" fill="#FFFFFF">
            <path d="M719,43 C726.16778,43 732,48.8322196 732,56 C732,63.1677804 726.16778,69 719,69 C711.83222,69 706,63.1677804 706,56 C706,48.8322196 711.83222,43 719,43 Z M717.54,50 L718.02,59.36 L720,59.36 L720.5,50 L717.54,50 Z M719.02,64.14 C719.473336,64.14 719.849998,63.9900015 720.15,63.69 C720.450001,63.3899985 720.6,63.0200022 720.6,62.58 C720.6,62.1399978 720.450001,61.7733348 720.15,61.48 C719.849998,61.1866652 719.473336,61.04 719.02,61.04 C718.553331,61.04 718.166668,61.1866652 717.86,61.48 C717.553332,61.7733348 717.4,62.1399978 717.4,62.58 C717.4,63.0200022 717.553332,63.3899985 717.86,63.69 C718.166668,63.9900015 718.553331,64.14 719.02,64.14 Z" id="Combined-Shape"></path>
        </g>
    </g>
</svg>