<?xml version="1.0" encoding="UTF-8"?>
<svg width="26px" height="26px" viewBox="0 0 26 26" version="1.1" xmlns="http://www.w3.org/2000/svg" xmlns:xlink="http://www.w3.org/1999/xlink">
    <!-- Generator: Sketch 53.2 (72643) - https://sketchapp.com -->
    <title>Combined Shape</title>
    <desc>Created with Sketch.</desc>
    <g id="Page-1" stroke="none" stroke-width="1" fill="none" fill-rule="evenodd">
        <g id="notif-error" transform="translate(-775.000000, -43.000000)" fill="#FFFFFF">
            <path d="M788,43 C795.16778,43 801,48.8322196 801,56 C801,63.1677804 795.16778,69 788,69 C780.83222,69 775,63.1677804 775,56 C775,48.8322196 780.83222,43 788,43 Z M786.573818,56.0000282 L782.295377,60.2784742 C781.901541,60.6723103 781.901541,61.3107868 782.295377,61.7046229 C782.689212,62.098459 783.327744,62.098459 783.721524,61.7046229 L788.000021,57.4261205 L792.278519,61.7046229 C792.672354,62.098459 793.31083,62.098459 793.704666,61.7046229 C794.098445,61.3108432 794.098445,60.6723103 793.704666,60.2784742 L789.426168,55.9999718 L793.704666,51.7215258 C794.098445,51.327746 794.098445,50.6892132 793.704666,50.2953771 C793.31083,49.901541 792.672354,49.901541 792.278519,50.2953771 L788.000021,54.5739358 L783.721524,50.2954334 C783.327688,49.9015973 782.689212,49.9015973 782.295377,50.2954334 C781.901541,50.6892132 781.901541,51.327746 782.295377,51.7215821 L786.573818,56.0000282 Z" id="Combined-Shape"></path>
        </g>
    </g>
</svg>