<?xml version="1.0" encoding="UTF-8"?>
<svg width="26px" height="26px" viewBox="0 0 26 26" version="1.1" xmlns="http://www.w3.org/2000/svg" xmlns:xlink="http://www.w3.org/1999/xlink">
    <!-- Generator: Sketch 53.2 (72643) - https://sketchapp.com -->
    <title>success</title>
    <desc>Created with Sketch.</desc>
    <g id="Page-1" stroke="none" stroke-width="1" fill="none" fill-rule="evenodd">
        <g id="notif-succes" transform="translate(-828.000000, -43.000000)" fill="#FFFFFF">
            <path d="M841,43 C848.16778,43 854,48.8322196 854,56 C854,63.1677804 848.16778,69 841,69 C833.83222,69 828,63.1677804 828,56 C828,48.8322196 833.83222,43 841,43 Z M848.747044,52.5139291 C849.115172,52.1389922 849.076422,51.564089 848.663918,51.2294863 C848.251415,50.8965878 847.61891,50.9295368 847.252657,51.3044737 L839.881971,58.8407045 L835.623811,55.7452031 C835.194433,55.4321876 834.564427,55.494109 834.220049,55.8872246 C833.873797,56.2797722 833.944422,56.852403 834.373801,57.1654185 L839.373842,60.8000337 C839.559468,60.9335339 839.77947,61 839.998847,61 C840.275099,61 840.550727,60.8954721 840.748853,60.6938016 L848.747044,52.5139291 Z" id="success"></path>
        </g>
    </g>
</svg>