<?xml version="1.0" encoding="UTF-8"?>
<svg width="23px" height="23px" viewBox="0 0 23 23" version="1.1" xmlns="http://www.w3.org/2000/svg" xmlns:xlink="http://www.w3.org/1999/xlink">
    <!-- Generator: Sketch 53.2 (72643) - https://sketchapp.com -->
    <title>Combined Shape</title>
    <desc>Created with Sketch.</desc>
    <g id="Page-1" stroke="none" stroke-width="1" fill="none" fill-rule="evenodd">
        <g id="jurnal-Items-to-reconcile" transform="translate(-405.000000, -544.000000)" fill="#E85667">
            <path d="M416.5,567 C410.148725,567 405,561.851275 405,555.5 C405,549.148725 410.148725,544 416.5,544 C422.851275,544 428,549.148725 428,555.5 C428,561.851275 422.851275,567 416.5,567 Z M410.5,555 C410.223858,555 410,555.223858 410,555.5 C410,555.776142 410.223858,556 410.5,556 L423.5,556 C423.776142,556 424,555.776142 424,555.5 C424,555.223858 423.776142,555 423.5,555 L410.5,555 Z" id="Combined-Shape"></path>
        </g>
    </g>
</svg>