<?xml version="1.0" encoding="UTF-8"?>
<svg width="23px" height="23px" viewBox="0 0 23 23" version="1.1" xmlns="http://www.w3.org/2000/svg" xmlns:xlink="http://www.w3.org/1999/xlink">
    <!-- Generator: Sketch 53.2 (72643) - https://sketchapp.com -->
    <title>Combined Shape</title>
    <desc>Created with Sketch.</desc>
    <g id="Page-1" stroke="none" stroke-width="1" fill="none" fill-rule="evenodd">
        <g id="jurnal-Items-to-reconcile" transform="translate(-435.000000, -544.000000)" fill="#229CD6">
            <path d="M446.5,567 C440.148725,567 435,561.851275 435,555.5 C435,549.148725 440.148725,544 446.5,544 C452.851275,544 458,549.148725 458,555.5 C458,561.851275 452.851275,567 446.5,567 Z M447,555.819444 L447,550.409722 C447,550.13358 446.776142,549.909722 446.5,549.909722 C446.223858,549.909722 446,550.13358 446,550.409722 L446,555.819444 L440.492477,555.819444 C440.220489,555.819444 440,556.039934 440,556.311921 C440,556.583909 440.220489,556.804398 440.492477,556.804398 L446,556.804398 L446,562.21412 C446,562.490263 446.223858,562.71412 446.5,562.71412 C446.776142,562.71412 447,562.490263 447,562.21412 L447,556.804398 L452.507523,556.804398 C452.779511,556.804398 453,556.583909 453,556.311921 C453,556.039934 452.779511,555.819444 452.507523,555.819444 L447,555.819444 Z" id="Combined-Shape"></path>
        </g>
    </g>
</svg>