<?xml version="1.0" encoding="UTF-8"?>
<svg width="26px" height="26px" viewBox="0 0 26 26" version="1.1" xmlns="http://www.w3.org/2000/svg" xmlns:xlink="http://www.w3.org/1999/xlink">
    <!-- Generator: Sketch 52.5 (67469) - http://www.bohemiancoding.com/sketch -->
    <title>success</title>
    <desc>Created with Sketch.</desc>
    <g id="Page-1" stroke="none" stroke-width="1" fill="none" fill-rule="evenodd">
        <g id="no-data-copy" transform="translate(-828.000000, -43.000000)" fill="#78CDD1">
            <g id="Group" transform="translate(828.000000, 43.000000)">
                <path d="M13,0 C20.1677804,0 26,5.8322196 26,13 C26,20.1677804 20.1677804,26 13,26 C5.8322196,26 0,20.1677804 0,13 C0,5.8322196 5.8322196,0 13,0 Z M20.7470442,9.51392907 C21.1151722,9.13899221 21.0764219,8.56408902 20.6639185,8.22948628 C20.2514151,7.8965878 19.6189099,7.92953679 19.2526568,8.30447365 L11.8819711,15.8407045 L7.62381105,12.7452031 C7.19443251,12.4321876 6.56442732,12.494109 6.22004949,12.8872246 C5.87379664,13.2797722 5.94442222,13.852403 6.37380075,14.1654185 L11.3738419,17.8000337 C11.5594685,17.9335339 11.7794703,18 11.9988471,18 C12.2750994,18 12.5507266,17.8954721 12.7488533,17.6938016 L20.7470442,9.51392907 Z" id="success"></path>
            </g>
        </g>
    </g>
</svg>