<?xml version="1.0" encoding="UTF-8"?>
<svg width="107px" height="107px" viewBox="0 0 107 107" version="1.1" xmlns="http://www.w3.org/2000/svg" xmlns:xlink="http://www.w3.org/1999/xlink">
    <!-- Generator: Sketch 53.2 (72643) - https://sketchapp.com -->
    <title>company 2</title>
    <desc>Created with Sketch.</desc>
    <g id="Page-1" stroke="none" stroke-width="1" fill="none" fill-rule="evenodd">
        <g id="setting" transform="translate(-485.000000, -278.000000)" fill-rule="nonzero">
            <g id="company-2" transform="translate(485.000000, 278.000000)">
                <g id="company">
                    <path d="M0,13 L54,13 L25.3125,107 L0,107 L0,13 Z M9.67924528,25.6344086 L9.67924528,31.6989247 L15.7924528,31.6989247 L15.7924528,25.6344086 L9.67924528,25.6344086 Z M9.67924528,37.7634409 L9.67924528,43.827957 L15.7924528,43.827957 L15.7924528,37.7634409 L9.67924528,37.7634409 Z M9.67924528,50.3978495 L9.67924528,56.4623656 L15.7924528,56.4623656 L15.7924528,50.3978495 L9.67924528,50.3978495 Z M9.67924528,63.0322581 L9.67924528,69.0967742 L15.7924528,69.0967742 L15.7924528,63.0322581 L9.67924528,63.0322581 Z M9.67924528,75.6666667 L9.67924528,81.7311828 L15.7924528,81.7311828 L15.7924528,75.6666667 L9.67924528,75.6666667 Z" id="Combined-Shape" fill="#127BAD"></path>
                    <path d="M107,13 L107,107 L81.6875,107 L53,13 L107,13 Z M91.2075472,25.6344086 L91.2075472,31.6989247 L97.3207547,31.6989247 L97.3207547,25.6344086 L91.2075472,25.6344086 Z M91.2075472,37.7634409 L91.2075472,43.827957 L97.3207547,43.827957 L97.3207547,37.7634409 L91.2075472,37.7634409 Z M91.2075472,50.3978495 L91.2075472,56.4623656 L97.3207547,56.4623656 L97.3207547,50.3978495 L91.2075472,50.3978495 Z M91.2075472,63.0322581 L91.2075472,69.0967742 L97.3207547,69.0967742 L97.3207547,63.0322581 L91.2075472,63.0322581 Z M91.2075472,75.6666667 L91.2075472,81.7311828 L97.3207547,81.7311828 L97.3207547,75.6666667 L91.2075472,75.6666667 Z" id="Combined-Shape" fill="#92D9FA"></path>
                    <polygon id="Path" fill="#5ACAFF" points="82 0 50.0816327 0 36 53.5 67.9183673 107 82 107"></polygon>
                    <polygon id="Path" fill="#229CD6" points="25 0 25 107 37.3529412 107 53 94.4609375 53 0"></polygon>
                    <path d="M37,13 L53,13 L53,32 L37,32 L37,13 Z M37,37 L53,37 L53,56 L37,56 L37,37 Z" id="Combined-Shape" fill="#FFFFFF"></path>
                    <path d="M53,13 L69,13 L69,32 L53,32 L53,13 Z M53,37 L69,37 L69,56 L53,56 L53,37 Z" id="Combined-Shape-Copy" fill="#EBEBEB"></path>
                    <rect id="Rectangle" fill="#6E7786" x="37" y="78" width="16" height="29"></rect>
                    <rect id="Rectangle-Copy" fill="#393E46" x="53" y="78" width="16" height="29"></rect>
                </g>
            </g>
        </g>
    </g>
</svg>