<?xml version="1.0" encoding="UTF-8"?>
<svg width="107px" height="107px" viewBox="0 0 107 107" version="1.1" xmlns="http://www.w3.org/2000/svg" xmlns:xlink="http://www.w3.org/1999/xlink">
    <!-- Generator: Sketch 53.2 (72643) - https://sketchapp.com -->
    <title>storage 2</title>
    <desc>Created with Sketch.</desc>
    <g id="Page-1" stroke="none" stroke-width="1" fill="none" fill-rule="evenodd">
        <g id="storage-2" fill-rule="nonzero">
            <g id="storage">
                <polygon id="Path" fill="#963BF4" points="107 0 43.0037281 0 38 102.816944 91.0671159 107 107 107"></polygon>
                <polygon id="Path" fill="#6100C6" points="0 0 0 107 13.1951883 107 53 102.816944 53 0"></polygon>
                <rect id="Rectangle" fill="#6E7786" x="30" y="10" width="23" height="7"></rect>
                <rect id="Rectangle-Copy-3" fill="#393E46" x="53" y="10" width="23" height="7"></rect>
                <path d="M53.0921907,103.39065 L27.6744476,107 L13,107 L13,27 L53.1487846,27 L93,27 L93,107 L79.7092142,107 L53.0921907,103.39065 Z" id="Combined-Shape" fill="#FFFFFF"></path>
                <polygon id="Path" fill="#963BF4" points="69 55 56.4426909 55 53.2544237 57.0771673 49 85 69 80.8456653"></polygon>
                <polygon id="Path" fill="#6100C6" points="38 55 38 80.8456653 54 85 54 57.0771673 50.7602154 55"></polygon>
                <polygon id="Path" fill="#B977FD" points="84 107 84 81 71.7046095 81 68.5828428 83.0895877 65.461076 81 53.1656855 81 49 94 53.1656855 107"></polygon>
                <polygon id="Path" fill="#963BF4" points="53 107 53 81 40.6385413 81 37.5 83.0895877 34.3614587 81 22 81 22 107"></polygon>
                <rect id="Rectangle" fill="#6100C6" x="35" y="81" width="7" height="10"></rect>
                <rect id="Rectangle" fill="#963BF4" x="65" y="81" width="7" height="10"></rect>
                <rect id="Rectangle" fill="#320263" x="50" y="55" width="7" height="10"></rect>
            </g>
        </g>
    </g>
</svg>