<svg width="286" height="287" viewBox="0 0 286 287" fill="none" xmlns="http://www.w3.org/2000/svg">
<path fill-rule="evenodd" clip-rule="evenodd" d="M122.899 143.49L105.449 126.4L88 143.49H95.8503V176.089C95.8503 181.39 100.148 185.688 105.45 185.688C110.752 185.688 115.05 181.39 115.05 176.089V143.49H122.899Z" fill="#DBEFF8"/>
<path fill-rule="evenodd" clip-rule="evenodd" d="M160.708 121.966L143.258 104.877L125.809 121.966H133.659L133.659 176.083C133.659 181.385 137.957 185.683 143.259 185.683C148.561 185.683 152.859 181.385 152.859 176.083L152.859 121.966H160.708Z" fill="#8DD3F5"/>
<path fill-rule="evenodd" clip-rule="evenodd" d="M198.474 105.09L181.024 88L163.575 105.09H171.425L171.425 176.085C171.425 181.387 175.723 185.684 181.025 185.684C186.327 185.684 190.625 181.387 190.625 176.085L190.625 105.09H198.474Z" fill="#229CD6"/>
<path fill-rule="evenodd" clip-rule="evenodd" d="M275.907 120.082C279.961 120.082 284.65 123.106 285.102 127.126C286.316 137.957 286.303 148.894 285.04 159.643C284.544 163.83 280.773 166.99 276.669 166.657L274.9 166.61C262.259 166.61 250.507 174.398 245.648 185.996C240.479 198.315 243.706 212.656 253.659 221.666C256.777 224.492 257.152 229.258 254.511 232.535C247.711 241.005 239.933 248.701 231.378 255.409C228.086 257.955 223.413 257.582 220.587 254.506C212.076 245.163 196.939 241.645 185.172 246.451C172.997 251.435 165.123 263.692 165.602 276.946C165.742 281.103 162.672 284.678 158.526 285.136C153.293 285.718 148.059 286.004 142.828 286.004C137.315 286.004 131.819 285.687 126.352 285.048C122.173 284.57 119.088 280.902 119.337 276.693C120.095 263.297 112.33 250.822 99.9862 245.657C88.2026 240.711 72.8939 244.213 64.3373 253.675C61.4962 256.806 56.7293 257.176 53.4516 254.537C45.1028 247.812 37.4738 240.112 30.8331 231.649C28.2505 228.384 28.6414 223.688 31.7001 220.877C41.4788 211.908 44.6946 197.702 39.6989 185.512C34.6785 173.308 22.7279 165.602 10.2727 165.919C6.17371 165.919 1.34623 162.921 0.894772 158.884C-0.314882 148.056 -0.301277 137.108 0.955378 126.368C1.45631 122.244 4.68329 119.198 9.21764 119.344C23.1905 119.344 35.3971 111.77 40.3322 100.014C45.5011 87.6824 42.2914 73.3471 32.3359 64.3316C29.2351 61.5103 28.8454 56.7509 31.4837 53.467C38.2543 45.0192 46.0478 37.3197 54.6168 30.5949C57.8957 28.0383 62.597 28.4168 65.4084 31.499C73.9143 40.8559 89.1191 44.3377 100.809 39.5621C112.998 34.5689 120.855 22.3128 120.391 9.0524C120.253 4.89653 123.328 1.3257 127.469 0.868063C138.183 -0.320565 148.96 -0.284696 159.643 0.952169C163.837 1.44073 166.914 5.09814 166.663 9.30719C165.9 22.6987 173.669 35.175 185.977 40.3537C197.809 45.2901 213.12 41.7823 221.643 32.3426C224.469 29.2145 229.255 28.8509 232.511 31.4632C240.835 38.1311 248.457 45.8256 255.166 54.3427C257.743 57.6105 257.369 62.318 254.294 65.1294C244.531 74.0855 241.319 88.2983 246.297 100.488C251.174 112.391 262.803 120.082 275.907 120.082ZM143.002 231.895C192.096 231.895 231.895 192.096 231.895 143.002C231.895 93.9077 192.096 54.1089 143.002 54.1089C93.9077 54.1089 54.1089 93.9077 54.1089 143.002C54.1089 192.096 93.9077 231.895 143.002 231.895Z" fill="#229CD6"/>
<path fill-rule="evenodd" clip-rule="evenodd" d="M143.002 0C137.822 0.00607931 132.638 0.294521 127.469 0.867964C123.328 1.3256 120.253 4.89643 120.391 9.0523C120.855 22.3127 112.998 34.5688 100.809 39.562C89.1191 44.3376 73.9143 40.8558 65.4084 31.4989C62.597 28.4167 57.8957 28.0382 54.6168 30.5948C46.0478 37.3196 38.2543 45.0191 31.4837 53.4669C28.8454 56.7508 29.2351 61.5102 32.3359 64.3315C42.2914 73.347 45.5011 87.6823 40.3322 100.014C35.3971 111.77 23.1905 119.344 9.21764 119.344C4.68329 119.198 1.45631 122.244 0.955378 126.368C-0.301277 137.107 -0.314882 148.056 0.894772 158.884C1.34623 162.921 6.17371 165.919 10.2727 165.919C22.7279 165.602 34.6785 173.308 39.6989 185.512C44.6946 197.701 41.4788 211.908 31.7001 220.877C28.6414 223.688 28.2505 228.384 30.8331 231.648C37.4738 240.112 45.1028 247.812 53.4516 254.537C56.7293 257.176 61.4962 256.806 64.3373 253.675C72.8939 244.213 88.2026 240.711 99.9862 245.657C112.33 250.822 120.095 263.297 119.337 276.693C119.088 280.902 122.173 284.57 126.352 285.048C131.819 285.687 137.315 286.004 142.828 286.004C142.886 286.004 142.944 286.004 143.002 286.004V231.895C93.9077 231.895 54.1089 192.096 54.1089 143.002C54.1089 93.9076 93.9077 54.1088 143.002 54.1088V0Z" fill="#8DD3F5"/>
<circle cx="253.5" cy="32.5" r="32.5" fill="#E85667"/>
<path fill-rule="evenodd" clip-rule="evenodd" d="M259.276 20.2027L257.205 39.924C257.065 41.2618 255.937 42.2776 254.591 42.2776C253.048 42.2776 251.748 41.1247 251.563 39.5924L249.329 21.0615C248.945 17.8823 251.39 15.0667 254.591 15C254.591 15 254.591 15 254.591 15M259.276 20.2027C259.568 17.4217 257.388 15 254.591 15L259.276 20.2027Z" fill="white"/>
<circle r="3.11388" transform="matrix(-1 0 0 1 254.467 46.8854)" fill="white"/>
</svg>
