<?xml version="1.0" encoding="UTF-8"?>
<svg width="63px" height="59px" viewBox="0 0 63 59" version="1.1" xmlns="http://www.w3.org/2000/svg" xmlns:xlink="http://www.w3.org/1999/xlink">
    <!-- Generator: Sketch 53.2 (72643) - https://sketchapp.com -->
    <title>Group 2</title>
    <desc>Created with Sketch.</desc>
    <g id="Page-1" stroke="none" stroke-width="1" fill="none" fill-rule="evenodd">
        <g id="laporan-kegiatan-HARIAN-MESIN-BY-JENIS-KEGIATAN" transform="translate(-446.000000, -305.000000)">
            <g id="Group-2" transform="translate(446.000000, 304.000000)">
                <path d="" id="Path-19" stroke="#979797"></path>
                <g id="Group-6" transform="translate(0.000000, 1.000000)">
                    <path d="M28.9833333,25.2307692 L19.9108614,25.2307692 L19.9108614,32 L0,16 L19.9108614,0 L19.9108614,6.76923077 L28.9833333,6.76923077 L37,6.76923077 L37,25.2307692 L28.9833333,25.2307692 Z" id="Combined-Shape" fill="#E6CE22"></path>
                    <path d="M0,16.2133333 L19.9108614,0 L19.9108614,6.85948718 L28.9833333,6.85948718 L37,6.85948718 L37,16.2133333 L0,16.2133333 Z" id="Combined-Shape" fill="#FFEB58"></path>
                </g>
                <g id="Group-6-Copy" transform="translate(44.500000, 44.000000) scale(-1, 1) translate(-44.500000, -44.000000) translate(26.000000, 28.000000)">
                    <path d="M28.9833333,25.2307692 L19.9108614,25.2307692 L19.9108614,32 L0,16 L19.9108614,0 L19.9108614,6.76923077 L28.9833333,6.76923077 L37,6.76923077 L37,25.2307692 L28.9833333,25.2307692 Z" id="Combined-Shape" fill="#393E46"></path>
                    <path d="M0,16.2133333 L19.9108614,0 L19.9108614,6.85948718 L28.9833333,6.85948718 L37,6.85948718 L37,16.2133333 L0,16.2133333 Z" id="Combined-Shape" fill="#535860"></path>
                </g>
            </g>
        </g>
    </g>
</svg>