<?xml version="1.0" encoding="UTF-8"?>
<svg width="43px" height="43px" viewBox="0 0 43 43" version="1.1" xmlns="http://www.w3.org/2000/svg" xmlns:xlink="http://www.w3.org/1999/xlink">
    <!-- Generator: Sketch 53.2 (72643) - https://sketchapp.com -->
    <title>Combined Shape</title>
    <desc>Created with Sketch.</desc>
    <g id="Page-1" stroke="none" stroke-width="1" fill="none" fill-rule="evenodd">
        <path d="M21.5,43 C9.62587788,43 0,33.3741221 0,21.5 C0,9.62587788 9.62587788,0 21.5,0 C33.3741221,0 43,9.62587788 43,21.5 C43,33.3741221 33.3741221,43 21.5,43 Z M18.7777778,17.0810811 L18.7777778,35 L24.2222222,35 L24.2222222,17.0810811 L18.7777778,17.0810811 Z M21.5,14.6216216 C22.5343694,14.6216216 23.3762854,14.3470049 24.0257732,13.7977633 C24.675261,13.2485216 25,12.5539029 25,11.7138863 C25,10.9384863 24.675261,10.2923294 24.0257732,9.77539609 C23.3762854,9.25846278 22.5343694,9 21.5,9 C20.4656306,9 19.6237146,9.26923206 18.9742268,9.80770426 C18.324739,10.3461765 18,11.013872 18,11.8108108 C18,12.6077497 18.324739,13.2754452 18.9742268,13.8139174 C19.6237146,14.3523896 20.4656306,14.6216216 21.5,14.6216216 Z" id="Combined-Shape" fill="#2CA1D8"></path>
    </g>
</svg>