<?xml version="1.0" encoding="UTF-8"?>
<svg width="116px" height="122px" viewBox="0 0 116 122" version="1.1" xmlns="http://www.w3.org/2000/svg" xmlns:xlink="http://www.w3.org/1999/xlink">
    <!-- Generator: Sketch 53.2 (72643) - https://sketchapp.com -->
    <title>wallet</title>
    <desc>Created with Sketch.</desc>
    <g id="Page-1" stroke="none" stroke-width="1" fill="none" fill-rule="evenodd">
        <g id="setting" transform="translate(-1245.000000, -567.000000)" fill-rule="nonzero">
            <g id="wallet" transform="translate(1245.000000, 567.000000)">
                <path d="M26.7546922,57.6941801 L10.285987,69 C4.60480929,69 0,53.0617247 0,47.3475342 C0,44.4886626 1.15142306,41.9024451 3.01365554,40.0302795 C4.87500508,38.1581139 7.44539817,37 10.285987,37 L77.2751448,37 C82.0954044,37 86,40.9272847 86,45.7755544 L86,50.1762094" id="Path" fill="#CE6209"></path>
                <path d="M62,6.03128834 L62,58 L11,58 L11,6.03128834 C11,2.69984668 13.6784973,0 16.9853602,0 L56.0146396,0 C59.3197375,0 62,2.69984668 62,6.03128834 Z" id="Path" fill="#3C3F4D"></path>
                <path d="M57,13.0145489 L57,57 L16,57 L16,13.0145489 C16,11.3508633 17.3511734,10 19.0172091,10 L53.9836729,10 C55.6514723,10 57,11.3508633 57,13.0145489 Z" id="Path" fill="#C4E2F2"></path>
                <path d="M57,13.0339432 L57,67.9651698 C57,69.6418227 55.7013805,71 54.100993,71 L50,71 C51.6012353,71 52.9007024,69.6418227 52.9007024,67.9651698 L52.9007024,13.0339432 C52.9007024,11.3572903 51.6012353,10 50,10 L54.100993,10 C55.7013805,10 57,11.3572903 57,13.0339432 Z" id="Path" fill="#83B2C6"></path>
                <path d="M90.8587457,23 L40.5915858,23 C36.9513637,23 34,25.992101 34,29.6845767 L34,58.3154233 C34,62.0069997 36.9513637,65 40.5915858,65 L90.8587457,65 C94.8030585,65 98,61.7570587 98,57.7571016 L98,30.2419994 C98,26.2420423 94.8030585,23 90.8587457,23 Z" id="Path" fill="#83B2C6"></path>
                <path d="M95.8587457,23 L45.591586,23 C41.9513637,23 39,25.992101 39,29.6845767 L39,58.3154233 C39,62.0069997 41.9513637,65 45.591586,65 L95.8587457,65 C99.802172,65 103,61.7570587 103,57.7571016 L103,30.2419994 C103,26.2420423 99.802172,23 95.8587457,23 L95.8587457,23 Z" id="Path" fill="#E67481"></path>
                <polygon id="Path" fill="#2D303B" points="39 34 103 34 103 42 39 42"></polygon>
                <polygon id="Path" fill="#83B2C6" points="24 51 110 51 110 100 24 100"></polygon>
                <polygon id="Path" fill="#0BBE77" points="30 51 116 51 116 100 30 100"></polygon>
                <path d="M108,83.0128493 L108,66.9880177 C102.957006,66.9880177 98.8678303,62.9633899 98.8678303,58 L46.1312891,58 C46.1312891,62.9633899 42.0429938,66.9880177 37,66.9880177 L37,83.0128493 C42.0429938,83.0128493 46.1312891,87.0366103 46.1312891,92 L98.8678303,92 C98.8678303,87.0366103 102.956125,83.0128493 108,83.0128493 L108,83.0128493 Z" id="Path" fill="#16A46C"></path>
                <path d="M97.2690983,77 L91.7309017,77 C90.7745547,77 90,76.1050273 90,75.0000001 C90,73.8959681 90.7745547,73 91.7309017,73 L97.2690983,73 C98.2245836,73 99,73.8959681 99,75.0000001 C99,76.1050273 98.2245836,77 97.2690983,77 Z" id="Path" fill="#32CC77"></path>
                <path d="M108.992093,60 C107.224997,60 106.320948,57.7763417 107.602018,56.5528309 C108.183049,55.9984121 109.071098,55.8428557 109.806137,56.1689259 C110.603181,56.5229161 111.096207,57.3754848 110.984201,58.2440079 C110.857194,59.234184 109.998148,60 108.992093,60 Z" id="Path" fill="#1FB25E"></path>
                <path d="M108.99212,94 C107.190314,94 106.29741,91.6918127 107.662263,90.4973382 C108.273197,89.9639128 109.168101,89.8462599 109.894022,90.2091887 C110.669939,90.5980411 111.11789,91.4714632 110.972906,92.3279353 C110.810924,93.2791276 109.962015,94 108.99212,94 L108.99212,94 Z" id="Path" fill="#1FB25E"></path>
                <path d="M86,66.1643424 L86,107.205106 C86,112.06406 82.0954044,116 77.2751448,116 L10.285987,116 C4.60480929,116 0,111.358225 0,105.629662 L0,47 C0,52.7267836 4.60480929,57.3694482 10.285987,57.3694482 L77.2751448,57.3694482 C82.0954044,57.3694482 86,61.3080583 86,66.1643424 Z" id="Path" fill="#FFAB63"></path>
                <path d="M50,57 L50,122 L45.8947281,122 C20.5460564,122 0,116.954593 0,110.727893 L0,47 C0,53.2247648 20.5460564,57 45.8947281,57 L50,57 Z" id="Path" fill="#FF8C29"></path>
                <path d="M76,86 C76,89.2487556 73.7873985,91.9803511 70.7862197,92.7689282 C70.2158763,92.9183912 69.6171077,93 68.9999999,93 C65.1341366,93 62,89.8658632 62,86 C62,82.1332199 65.1341366,79 68.9999999,79 C69.6171077,79 70.2158763,79.0806916 70.7862197,79.2301546 C73.7873985,80.018732 76,82.7503275 76,86 Z" id="Path" fill="#FFBE1D"></path>
                <path d="M76,86.5004403 C76,89.6199121 73.8777485,92.2428042 70.9991207,93 C68.1222517,92.2401627 66,89.6181511 66,86.5004403 C66,83.3818492 68.1222517,80.7598375 70.9991207,80 C73.8777485,80.7571961 76,83.3800881 76,86.5004403 Z" id="Path" fill="#FFE14D"></path>
            </g>
        </g>
    </g>
</svg>