<?xml version="1.0" encoding="UTF-8"?>
<svg width="154px" height="131px" viewBox="0 0 154 131" version="1.1" xmlns="http://www.w3.org/2000/svg" xmlns:xlink="http://www.w3.org/1999/xlink">
    <!-- Generator: Sketch 53.2 (72643) - https://sketchapp.com -->
    <title>camping-tent</title>
    <desc>Created with Sketch.</desc>
    <g id="Page-1" stroke="none" stroke-width="1" fill="none" fill-rule="evenodd">
        <g id="camping-tent" fill-rule="nonzero">
            <g id="Group" transform="translate(58.000000, 0.000000)">
                <path d="M10.4370703,32.7302477 L28.5632344,32.7302477 L38.1639375,17.822422 C39.5243672,15.7098165 38.9040234,12.9014862 36.7776094,11.5493945 C34.6524141,10.198211 31.8258281,10.8140092 30.4644844,12.9269174 L24.0703125,22.8556789 L24.0703125,4.79711009 C24.0703125,2.28911009 22.0240312,0.255825688 19.5,0.255825688 C16.9759687,0.255825688 14.9296875,2.28911009 14.9296875,4.79711009 L14.9296875,22.8556789 L8.53551562,12.9269174 C7.17447656,10.8140092 4.34819531,10.198211 2.22239063,11.5493945 C0.0959765625,12.9014862 -0.524367188,15.7098165 0.8360625,17.822422 L10.4370703,32.7302477 Z" id="Path" fill="#FAFAFA"></path>
                <path d="M28.5629297,32.7302477 L38.1636328,17.822422 C39.5240625,15.7098165 38.9037187,12.9014862 36.7773047,11.5493945 C34.6521094,10.198211 31.8255234,10.8140092 30.4641797,12.9269174 L24.0703125,22.8556789 L24.0703125,4.79711009 C24.0703125,2.28911009 22.0240312,0.255825688 19.5,0.255825688 L19.5,32.7302477 L28.5629297,32.7302477 L28.5629297,32.7302477 Z" id="Path" fill="#DBDBDB"></path>
            </g>
            <path d="M144,123 L81.2968917,25.0768947 C80.4680309,23.7827025 79.0369087,23 77.4996995,23 C75.9624903,23 74.5313681,23.7827025 73.7025073,25.0768947 L11,123 L144,123 Z" id="Path" fill="#FFF594"></path>
            <path d="M144,123 L80.852836,25.0768947 C80.0181053,23.7827025 78.576848,23 77.0287525,23 L77,23 L77,123 L144,123 L144,123 Z" id="Path" fill="#EEDD33"></path>
            <path d="M116,123 L80.9491647,60.3162369 C80.1495592,58.8860812 78.6387239,58 77,58 C75.3612761,58 73.8507425,58.8860812 73.0508353,60.3162369 L38,123 L116,123 Z" id="Path" fill="#4EBBEF"></path>
            <path d="M116,123 L80.9491647,60.3162369 C80.1495592,58.8860812 78.6387239,58 77,58 L77,123 L116,123 L116,123 Z" id="Path" fill="#229CD6"></path>
            <path d="M149.488281,122 L4.51171875,122 C2.02004687,122 0,124.0148 0,126.5 C0,128.9852 2.02004688,131 4.51171875,131 L149.488281,131 C151.979953,131 154,128.9852 154,126.5 C154,124.0148 151.979953,122 149.488281,122 Z" id="Path" fill="#0A71B8"></path>
            <path d="M149.488281,122 L77,122 L77,131 L149.488281,131 C151.979953,131 154,128.9852 154,126.5 C154,124.0148 151.979953,122 149.488281,122 Z" id="Path" fill="#0A4A75"></path>
        </g>
    </g>
</svg>