<?xml version="1.0" encoding="UTF-8"?>
<svg width="107px" height="85px" viewBox="0 0 107 85" version="1.1" xmlns="http://www.w3.org/2000/svg" xmlns:xlink="http://www.w3.org/1999/xlink">
    <!-- Generator: Sketch 53.2 (72643) - https://sketchapp.com -->
    <title>list</title>
    <desc>Created with Sketch.</desc>
    <g id="Page-1" stroke="none" stroke-width="1" fill="none" fill-rule="evenodd">
        <g id="list" fill-rule="nonzero">
            <polygon id="Path" fill="#393E46" points="0 0 24 0 24 24 0 24"></polygon>
            <polygon id="Path" fill="#5ACAFF" points="31 0 107 0 107 24 31 24"></polygon>
            <polygon id="Path" fill="#393E46" points="0 30 24 30 24 54 0 54"></polygon>
            <polygon id="Path" fill="#5ACAFF" points="31 30 107 30 107 54 31 54"></polygon>
            <polygon id="Path" fill="#393E46" points="0 61 24 61 24 85 0 85"></polygon>
            <polygon id="Path" fill="#5ACAFF" points="31 61 107 61 107 85 31 85"></polygon>
            <polygon id="Path" fill="#229CD6" points="53 0 107 0 107 24 53 24"></polygon>
            <polygon id="Path" fill="#229CD6" points="53 30 107 30 107 54 53 54"></polygon>
            <polygon id="Path" fill="#229CD6" points="53 61 107 61 107 85 53 85"></polygon>
        </g>
    </g>
</svg>