<svg width="92" height="81" viewBox="0 0 92 81" fill="none" xmlns="http://www.w3.org/2000/svg">
<path d="M40.5 81C62.8675 81 81 62.8675 81 40.5C81 18.1325 62.8675 0 40.5 0C18.1325 0 0 18.1325 0 40.5C0 62.8675 18.1325 81 40.5 81Z" fill="#E2F3FA"/>
<path d="M78.2737 30.7647L90.7353 12.8513L84.8939 8.95703L64.4492 38.3585L70.2906 42.058L78.2737 30.7647Z" fill="#4E4E4E"/>
<path d="M68.9281 44.0044L46.731 29.0116L51.0146 22.9756L73.4064 37.5789L68.9281 44.0044Z" fill="#249CD6"/>
<path d="M51.0145 22.9756L36.4111 44.0044L42.4472 47.8987L56.8558 26.8698L51.0145 22.9756Z" fill="#4FB0DD"/>
<path d="M31.7378 33.4913L27.6489 39.5273L15.382 57.4408L8.95654 52.9624L21.4181 35.2437L25.507 29.4023L31.7378 33.4913Z" fill="#4FB0DD"/>
<path d="M45.9516 42.8374L41.4733 49.0682L27.6487 39.5273L21.418 35.2437L25.5069 29.4023L31.7377 33.4913L45.9516 42.8374Z" fill="#249CD6"/>
<path d="M80.416 9.73475L91.3199 17.3285L90.7357 7.00879L80.416 9.73475Z" fill="#4E4E4E"/>
</svg>
