<?xml version="1.0" encoding="UTF-8"?>
<svg width="131px" height="131px" viewBox="0 0 131 131" version="1.1" xmlns="http://www.w3.org/2000/svg" xmlns:xlink="http://www.w3.org/1999/xlink">
    <!-- Generator: Sketch 53.2 (72643) - https://sketchapp.com -->
    <title>light-bulb</title>
    <desc>Created with Sketch.</desc>
    <g id="Page-1" stroke="none" stroke-width="1" fill="none" fill-rule="evenodd">
        <g id="light-bulb" fill-rule="nonzero">
            <path d="M131,65.5 C131,101.674166 101.674051,131 65.5002559,131 C29.3249251,131 0,101.674166 0,65.5 C0,29.325834 29.3249251,0 65.5002559,0 C101.674051,0 131,29.325834 131,65.5 Z" id="Path" fill="#E67481"></path>
            <path d="M66.1194675,131 L66,-1.94972927e-11 C101.89862,0.00481667364 131,29.3288306 131,65.5000577 C131,101.631151 101.963163,130.930218 66.1194675,130.999991 Z" id="Combined-Shape" fill="#B73545"></path>
            <g id="Group" transform="translate(37.000000, 21.000000)">
                <g id="Path">
                    <path d="M28.4234839,0.0539222222 C-3.9483871,0.0539222222 -1.87690323,37.0964444 2.89729032,45.7894222 C6.77832258,52.8580889 11.843871,55.2370556 11.843871,64.4879111 C11.843871,64.5367222 11.843871,64.6716556 11.843871,64.8743111 L43.8322581,64.8743111 C43.8322581,64.6716556 43.8301935,64.5369778 43.8301935,64.4879111 C43.6869677,56.7353778 47.1063226,55.0413 52.7778065,45.7894222 C57.9630968,37.3310444 60.5298065,0.0539222222 28.4234839,0.0539222222 Z" fill="#F7EA6A"></path>
                    <path d="M28.8172903,0.0618444444 L28.8172903,72.1106222 L43.819871,72.1106222 C43.8258065,67.8479556 43.836129,64.7713222 43.8299355,64.4879111 C43.6867097,56.7353778 47.1060645,55.0413 52.7775484,45.7894222 C57.9429677,37.3660556 60.5034839,0.369277778 28.8172903,0.0618444444 Z" fill="#EEDD33"></path>
                    <g transform="translate(11.612903, 64.400000)" fill="#58301E">
                        <path d="M0.230967742,0.0879111111 C0.230967742,0.493222222 0.236903226,6.59665556 0.250064516,13.7141333 L32.1829677,13.7141333 C32.1971613,6.5964 32.2172903,0.493222222 32.2172903,0.0879111111 L0.230967742,0.0879111111 Z"></path>
                        <polygon points="10.4098065 23.5021667 22.0296774 23.4740556 32.1829677 13.7141333 12.1723871 12.3694 0.250064516 13.7141333"></polygon>
                    </g>
                    <path d="M28.8172903,64.4879111 L28.8172903,78.1141333 L43.795871,78.1141333 C43.8100645,70.9964 43.8301935,64.8932222 43.8301935,64.4879111 L28.8172903,64.4879111 Z" fill="#3B2314"></path>
                    <path d="M22.0227097,87.9021667 C23.1749677,90.2471444 24.8562581,91.9330444 27.8165161,91.9330444 C30.7757419,91.9330444 32.4854194,90.0682556 33.6425806,87.8740556 L22.0227097,87.9021667 Z" fill="#FFFFFF"></path>
                </g>
                <polygon id="Path" fill="#3B2314" points="33.6425806 87.8740556 43.795871 78.1141333 28.8172903 77.1069889 28.8172903 87.8832556"></polygon>
            </g>
        </g>
    </g>
</svg>