<svg width="119" height="119" viewBox="0 0 119 119" fill="none" xmlns="http://www.w3.org/2000/svg">
<g clip-path="url(#clip0)">
<path d="M107.494 43.8789H90.551C90.0649 46.3306 89.0332 48.6816 87.4594 50.7115C85.6867 52.9979 73.2275 69.0687 71.4008 71.4249C68.321 75.3975 63.4816 77.7691 58.4551 77.7691C53.4287 77.7691 48.5893 75.3975 45.5095 71.4249C43.6832 69.0691 31.2236 52.9979 29.4513 50.7115C27.8775 48.6816 26.8458 46.3306 26.3597 43.8789H11.5053C8.23689 43.8789 5.58716 46.5286 5.58716 49.797V113.082C5.58716 116.35 8.23689 119 11.5053 119H107.494C110.762 119 113.412 116.35 113.412 113.082V49.797C113.413 46.5286 110.763 43.8789 107.494 43.8789ZM95.5727 106.23C92.3043 106.23 89.6546 103.58 89.6546 100.312C89.6546 97.0432 92.3043 94.3934 95.5727 94.3934C98.841 94.3934 101.491 97.0432 101.491 100.312C101.491 103.58 98.8414 106.23 95.5727 106.23ZM72.6298 94.3934C75.8981 94.3934 78.5479 97.0432 78.5479 100.312C78.5479 103.58 75.8981 106.23 72.6298 106.23C69.3614 106.23 66.7117 103.58 66.7117 100.312C66.7117 97.0432 69.3614 94.3934 72.6298 94.3934Z" fill="#FF8C29"/>
<path d="M26.1988 5.42295C33.6418 9.7337 39.5796 16.3513 43.0433 24.295C44.653 27.9867 45.7289 31.9637 46.1704 36.1312H42.397C40.6626 36.1312 39.0797 37.1183 38.3167 38.6756C37.5537 40.2328 37.7434 42.0887 38.8059 43.4594L54.8645 64.1727C55.7254 65.283 57.051 65.9328 58.4556 65.9328C59.8602 65.9328 61.1862 65.283 62.0467 64.1727L78.1053 43.4594C79.1678 42.0887 79.3576 40.2328 78.5945 38.6756C77.8315 37.1183 76.2482 36.1312 74.5142 36.1312H69.9683C69.5268 31.9641 68.4517 27.9863 66.8424 24.295C60.6082 9.99646 46.3511 0 29.7564 0C28.9917 0 28.2319 0.0213052 27.4775 0.0631264C26.2083 0.133749 25.1359 1.02975 24.8412 2.26624C24.5461 3.50273 25.0984 4.78577 26.1988 5.42295Z" fill="#393E46"/>
</g>
<path fill-rule="evenodd" clip-rule="evenodd" d="M59 119H11.5052C8.23688 119 5.58716 116.35 5.58716 113.082V49.797C5.58716 46.5286 8.23688 43.8789 11.5052 43.8789H26.3597C26.8458 46.3306 27.8775 48.6816 29.4513 50.7115L41.439 66.1745L45.5095 71.4249C48.5892 75.3975 53.4287 77.7691 58.4551 77.7691C58.637 77.7691 58.8187 77.766 59 77.7598V119Z" fill="#CD701F"/>
<defs>
<clipPath id="clip0">
<rect width="119" height="119" fill="white"/>
</clipPath>
</defs>
</svg>
