<?xml version="1.0" encoding="UTF-8"?>
<svg width="101px" height="101px" viewBox="0 0 101 101" version="1.1" xmlns="http://www.w3.org/2000/svg" xmlns:xlink="http://www.w3.org/1999/xlink">
    <!-- Generator: Sketch 53.2 (72643) - https://sketchapp.com -->
    <title>taxes 2</title>
    <desc>Created with Sketch.</desc>
    <g id="Page-1" stroke="none" stroke-width="1" fill="none" fill-rule="evenodd">
        <g id="taxes-2" fill-rule="nonzero">
            <g id="taxes">
                <path d="M2.94642857,101 L0,101 L0,98.0410156 L0,23.671875 L19.3873466,20.0024262 L23.5714286,0 L74.0535714,0 C75.7040319,0 77,1.30149073 77,2.95898438 L77,98.0410156 C77,99.6977387 75.7040319,101 74.0535714,101 L2.94642857,101 Z" id="Combined-Shape" fill="#FF9DA9"></path>
                <path d="M77,2.95898438 L77,98.0410156 C77,99.6977387 75.6872011,101 74.0153061,101 L38,101 L38,11.9538345 L38.1196986,0 L74.0153061,0 L77,0 L77,2.95898438 Z" id="Combined-Shape" fill="#E67481"></path>
                <g id="Group" transform="translate(12.000000, 12.000000)" fill="#FFFFFF">
                    <path d="M35,26.5178571 C35,30.3482143 32.5639892,33.5892857 29.198895,34.8269391 L29.198895,38.0680106 C29.198895,39.7177037 27.9231052,41.0144391 26.2983425,41.0144391 C24.6735799,41.0144391 23.3977901,39.7177037 23.3977901,38.0680106 L23.3977901,34.7678571 C21.4829722,34.0604075 19.8008029,32.7644391 18.7569061,30.9375 C17.9449024,29.5233677 18.4086888,27.7555106 19.8008029,26.930664 C21.1936722,26.1050503 22.9914107,26.5769391 23.8041694,27.9910714 C24.3261179,28.875 25.2544457,29.4642857 26.2983425,29.4642857 C27.9231052,29.4642857 29.198895,28.1675503 29.198895,26.5178571 C29.198895,24.8673967 27.9231052,23.5714286 26.2983425,23.5714286 C21.4829722,23.5714286 17.5966851,19.6229075 17.5966851,14.7321429 C17.5966851,10.9017857 20.0326959,7.66071429 23.3977901,6.42306088 L23.3977901,3.06382529 C23.3977901,1.4141323 24.6735799,0.117396714 26.2983425,0.117396714 C27.9231052,0.117396714 29.198895,1.4141323 29.198895,3.06382529 L29.198895,6.48214286 C31.1137129,7.18959254 32.7958822,8.48556087 33.839779,10.3125 C34.6517827,11.7266323 34.1879963,13.4944894 32.7958822,14.3201033 C31.4030129,15.1449497 29.6052744,14.6730609 28.7925156,13.2589286 C28.2705672,12.375 27.3422394,11.7857143 26.2983425,11.7857143 C24.6735799,11.7857143 23.3977901,13.0824497 23.3977901,14.7321429 C23.3977901,16.381836 24.6735799,17.6785714 26.2983425,17.6785714 C31.1137129,17.6785714 35,21.6263253 35,26.5178571 Z" id="Path"></path>
                    <path d="M35,50.4821429 C35,52.131836 33.7242102,53.4285714 32.0994475,53.4285714 L2.90055249,53.4285714 C1.27578983,53.4285714 0,52.131836 0,50.4821429 C0,48.8316824 1.27578983,47.5357143 2.90055249,47.5357143 L32.0994475,47.5357143 C33.7242102,47.5357143 35,48.8316824 35,50.4821429 Z" id="Path"></path>
                    <path d="M26.2983425,65.2142857 L2.90055249,65.2142857 C1.29769519,65.2142857 0,63.8960657 0,62.2678571 C0,60.6396485 1.29769519,59.3214286 2.90055249,59.3214286 L26.2983425,59.3214286 C27.9011998,59.3214286 29.198895,60.6396485 29.198895,62.2678571 C29.198895,63.8960657 27.9011998,65.2142857 26.2983425,65.2142857 Z" id="Path"></path>
                    <path d="M26.2983425,77 L2.90055249,77 C1.29769519,77 0,75.68178 0,74.0535714 C0,72.4253628 1.29769519,71.1071429 2.90055249,71.1071429 L26.2983425,71.1071429 C27.9011998,71.1071429 29.198895,72.4253628 29.198895,74.0535714 C29.198895,75.68178 27.9011998,77 26.2983425,77 Z" id="Path"></path>
                </g>
                <path d="M21,24 L0,24 L24,0 L24,21 L24,24 L21,24 Z" id="Combined-Shape" fill="#E85667"></path>
                <path d="M73.9976423,29 C72.917785,29 71.8371465,29.1185433 70.7572892,29.3571797 C65.3564405,30.4876033 60.7955675,34.8310951 59.4758289,40.186467 C58.6952374,43.2809917 58.8749532,46.4344009 60.0157573,49.291064 C62.5958504,55.7172005 64.9962276,63.076188 64.9962276,70.3352274 L64.9962276,74.0247934 C64.9962276,75.6905993 66.3159663,77 67.9966992,77 L79.9985854,77 C81.6793183,77 82.9990569,75.2745351 82.9990569,73.6079546 C82.9990569,64.2662706 84.439127,56.3719008 87.4395986,50.4214876 C88.4600713,48.398502 89,46.1965393 89,43.8760331 C89,39.3535641 86.9598356,35.1882748 83.4796012,32.3323863 C80.7791768,30.1304236 77.4786581,29 73.9976423,29 Z" id="Path" fill="#D95767"></path>
                <path d="M80,77 L74,77 L74,29 C77.4804688,29 80.7796876,30.1304236 83.4804688,32.3323863 C86.9601562,35.1882748 89,39.3535641 89,43.8760331 C89,46.1965393 88.4601562,48.398502 87.4398438,50.4214876 C84.4398438,56.3719008 83,64.2662706 83,73.6079546 C83,75.2745351 81.6804688,77 80,77 Z" id="Path" fill="#B73545"></path>
                <path d="M56.9285714,101 L54,101 L54,98.1666667 L54,86.8333333 C54,85.2462239 55.2881138,84 56.9285714,84 L92.0714286,84 C93.7118862,84 95,85.2462239 95,86.8333333 L95,98.1666667 C95,99.7530383 93.7118862,101 92.0714286,101 L56.9285714,101 Z" id="Combined-Shape" fill="#6E7786"></path>
                <path d="M96,98.1666667 L96,101 L93,101 L75,101 L75,84 L93,84 C94.6804688,84 96,85.2462239 96,86.8333333 L96,98.1666667 Z" id="Combined-Shape" fill="#393E46"></path>
                <path d="M92.1666667,72 L56.8333333,72 C51.9450954,72 48,75.7962239 48,80.5 L48,86.1666667 C48,87.7530383 49.2950954,89 50.9444444,89 L98.0555556,89 C99.7049046,89 101,87.7530383 101,86.1666667 L101,80.5 C101,75.7962239 97.0549046,72 92.1666667,72 Z" id="Path" fill="#D95767"></path>
                <path d="M101,80.5 L101,86.1666667 C101,87.7530383 99.7293403,89 98.1111111,89 L75,89 L75,72 L92.3333333,72 C97.1293403,72 101,75.7962239 101,80.5 Z" id="Path" fill="#B73545"></path>
            </g>
        </g>
    </g>
</svg>