<?xml version="1.0" encoding="UTF-8"?>
<svg width="118px" height="75px" viewBox="0 0 118 75" version="1.1" xmlns="http://www.w3.org/2000/svg" xmlns:xlink="http://www.w3.org/1999/xlink">
    <!-- Generator: Sketch 53.2 (72643) - https://sketchapp.com -->
    <title>shipped (1)</title>
    <desc>Created with Sketch.</desc>
    <g id="Page-1" stroke="none" stroke-width="1" fill="none" fill-rule="evenodd">
        <g id="setting" transform="translate(-1234.000000, -300.000000)">
            <g id="shipped-(1)" transform="translate(1234.000000, 300.000000)">
                <path d="M83.0263522,2 L11.9736478,2 C10.8837677,2 10,2.88063134 10,3.96664367 L10,45.2668507 L15.9209433,45.2668507 C18.1009343,45.2668507 19.8682388,47.0276534 19.8682388,49.200138 C19.8682388,51.3723926 18.1007035,53.1334253 15.9209433,53.1334253 L10,53.1334253 L10,59.0333563 C10,60.1193687 10.8837677,61 11.9736478,61 L85,61 L85,3.96664367 C85,2.88063134 84.1162323,2 83.0263522,2 Z" id="Path" fill="#229CD6"></path>
                <path d="M109,41 L117,41 L117,49 L113.000117,49 C110.790849,49 109.000234,47.2093846 109.000234,45.0001169 L109.000234,41 L109,41 Z" id="Path" fill="#F1F4FB"></path>
                <path d="M109.739753,31.7950036 L106.683962,19.5136071 C107.519413,19.3352971 108.146289,18.590563 108.146289,17.6983179 L108.146289,15.7181497 C108.146289,11.4187925 104.665052,7.921136 100.386391,7.921136 L86.4678954,7.921136 L86.4678954,3.83667723 C86.4678954,1.72103966 84.7550483,0 82.6494817,0 L11.7013822,0 C9.59581562,0 7.88296852,1.72103966 7.88296852,3.83667723 L7.88296852,37.5002316 C7.88296852,38.5253988 8.71012248,39.3567406 9.7306401,39.3567406 C10.7511577,39.3567406 11.5783117,38.5256303 11.5783117,37.5002316 L11.5783117,3.83667723 C11.5783117,3.76836362 11.6333938,3.71301803 11.7013822,3.71301803 L82.6492513,3.71301803 C82.7172397,3.71301803 82.7723218,3.76836362 82.7723218,3.83667723 L82.7723218,37.5006947 C82.7723218,38.5258619 83.5994758,39.3572037 84.6199934,39.3572037 C85.6402805,39.3572037 86.467665,38.5260935 86.467665,37.5006947 L86.467665,35.3961726 L108.262907,35.3961726 C108.26452,35.3961726 108.266133,35.3966357 108.267747,35.3966357 C108.26936,35.3966357 108.271204,35.3964042 108.272817,35.3964042 C110.954787,35.3980252 113.232053,37.1670001 114.014266,39.6042906 L108.269129,39.6042906 C107.248842,39.6042906 106.421458,40.4354008 106.421458,41.4607996 L106.421458,45.421136 C106.421458,48.6286334 109.018385,51.2379814 112.210614,51.2379814 L114.304657,51.2379814 L114.304657,59.4062043 L109.473561,59.4062043 C107.886551,54.802099 103.530452,51.4852998 98.4151883,51.4852998 C93.2999244,51.4852998 88.9435956,54.8018674 87.3568152,59.4062043 L86.467204,59.4062043 L86.467204,45.421136 C86.467204,44.3959688 85.6400501,43.564627 84.6195325,43.564627 C83.5992453,43.564627 82.7718609,44.3957372 82.7718609,45.421136 L82.7718609,59.4059727 L44.4383798,59.4059727 C42.8513689,54.8016358 38.4952705,51.4850683 33.3800066,51.4850683 C28.2647427,51.4850683 23.9084139,54.8016358 22.3216334,59.4059727 L11.7013822,59.4059727 C11.6333938,59.4059727 11.5783117,59.3506271 11.5783117,59.2823135 L11.5783117,55.1980863 L19.5845812,55.1980863 C20.6048684,55.1980863 21.4322528,54.366976 21.4322528,53.3415773 C21.4322528,52.3164101 20.6050988,51.4850683 19.5845812,51.4850683 L1.84767158,51.4850683 C0.827384428,51.4850683 0,52.3161785 0,53.3415773 C0,54.3667445 0.827153959,55.1980863 1.84767158,55.1980863 L7.88319899,55.1980863 L7.88319899,59.2823135 C7.88319899,61.3979511 9.59604609,63.1189907 11.7016127,63.1189907 L21.6818509,63.1189907 C21.68139,63.1602105 21.6786244,63.2011986 21.6786244,63.2426499 C21.6786244,69.7257267 26.9280213,75 33.3800066,75 C39.8319919,75 45.0813888,69.7257267 45.0813888,63.2426499 C45.0813888,63.200967 45.0786232,63.1602105 45.0781623,63.1189907 L86.7170327,63.1189907 C86.7165717,63.1602105 86.7138061,63.2011986 86.7138061,63.2426499 C86.7138061,69.7257267 91.9632031,75 98.4151883,75 C104.867174,75 110.116571,69.7257267 110.116571,63.2426499 C110.116571,63.200967 110.113805,63.1602105 110.113344,63.1189907 L116.152328,63.1189907 C117.172616,63.1189907 118,62.2878805 118,61.2624817 L118,41.4603364 C118.00023,36.5716297 114.410212,32.5094018 109.739753,31.7950036 Z M86.4678954,19.5545953 L102.885369,19.5545953 L105.903133,31.6833861 L86.4678954,31.6833861 L86.4678954,19.5545953 Z M100.386391,11.6339225 C102.627704,11.6339225 104.451177,13.4661165 104.451177,15.7181497 L104.451177,15.8418089 L86.4678954,15.8418089 L86.4678954,11.6339225 L100.386391,11.6339225 Z M33.3800066,71.2874451 C28.9653691,71.2874451 25.3737371,67.6788659 25.3737371,63.2428815 C25.3737371,58.8068971 28.9653691,55.1983179 33.3800066,55.1983179 C37.7946441,55.1983179 41.3862761,58.8068971 41.3862761,63.2428815 C41.3862761,67.6788659 37.7946441,71.2874451 33.3800066,71.2874451 Z M98.4156492,71.2874451 C94.0010117,71.2874451 90.4093797,67.6788659 90.4093797,63.2428815 C90.4093797,58.8068971 94.0010117,55.1983179 98.4156492,55.1983179 C102.830287,55.1983179 106.421919,58.8068971 106.421919,63.2428815 C106.421919,67.6788659 102.830287,71.2874451 98.4156492,71.2874451 Z M112.211075,47.5249634 C111.056424,47.5249634 110.117031,46.5810778 110.117031,45.4209044 L110.117031,43.3168454 L114.304887,43.3168454 L114.304887,47.5247318 L112.211075,47.5247318 L112.211075,47.5249634 Z" id="Shape" fill="#393E46" fill-rule="nonzero"></path>
                <path d="M33,59 C30.7943023,59 29,60.7943023 29,63 C29,65.2056977 30.7943023,67 33,67 C35.2056977,67 37,65.2056977 37,63 C37,60.7943023 35.2056977,59 33,59 Z" id="Path" fill="#393E46"></path>
                <path d="M98,59 C95.7943023,59 94,60.7943023 94,63 C94,65.2056977 95.7943023,67 98,67 C100.205698,67 102,65.2056977 102,63 C102,60.7943023 100.205698,59 98,59 Z" id="Path" fill="#393E46"></path>
                <path d="M47,53.5 C47,54.3283024 47.8195935,55 48.8307833,55 L76.1692167,55 C77.1801781,55 78,54.3284895 78,53.5 C78,52.6716976 77.1804065,52 76.1692167,52 L48.8305549,52 C47.8195935,52 47,52.6716976 47,53.5 Z" id="Path" fill="#393E46"></path>
                <path d="M5.8919493,47 L30.1080507,47 C31.1527881,47 32,46.3284895 32,45.5 C32,44.6716976 31.1530241,44 30.1080507,44 L5.8919493,44 C4.84721192,44 4,44.6715105 4,45.5 C4,46.3284895 4.84721192,47 5.8919493,47 Z" id="Path" fill="#393E46"></path>
                <path d="M61.875017,18.5553674 L45.5945277,35.4212652 L37.1252113,26.6472888 C36.4102053,25.9065624 35.2510322,25.9065624 34.5362545,26.6472888 C33.8212485,27.3880152 33.8212485,28.5886496 34.5362545,29.329376 L44.3001635,39.4445143 C44.6575524,39.8149958 45.1261542,40 45.5945277,40 C46.0629012,40 46.5315031,39.8149958 46.888892,39.4445143 L64.4637455,21.2374546 C65.1787515,20.4967282 65.1787515,19.2960938 64.4637455,18.5553674 C63.7491961,17.8148775 62.5897947,17.8148775 61.875017,18.5553674 Z" id="Path" fill="#393E46"></path>
            </g>
        </g>
    </g>
</svg>