<?xml version="1.0" encoding="UTF-8"?>
<svg width="467px" height="326px" viewBox="0 0 467 326" version="1.1" xmlns="http://www.w3.org/2000/svg" xmlns:xlink="http://www.w3.org/1999/xlink">
    <!-- Generator: Sketch 52.5 (67469) - http://www.bohemiancoding.com/sketch -->
    <title>Group</title>
    <desc>Created with Sketch.</desc>
    <g id="Page-1" stroke="none" stroke-width="1" fill="none" fill-rule="evenodd">
        <g id="product-details" transform="translate(-1308.000000, -351.000000)">
            <g id="Group" transform="translate(1308.000000, 351.000000)">
                <rect id="Rectangle" fill="#D8D8D8" x="0" y="0" width="467" height="326" rx="5"></rect>
                <g id="picture-(1)" transform="translate(146.000000, 75.000000)" fill="#FFFFFF" fill-rule="nonzero">
                    <path d="M0,157.4434 C0,167.692685 8.34327748,176 18.5565999,176 L157.4434,176 C167.692685,176 176,167.656723 176,157.4434 L176,18.5565999 C176,8.30731508 167.656723,0 157.4434,0 L18.5565999,0 C8.30731508,0 0,8.34327748 0,18.5565999 C0,18.5565999 0,157.4434 0,157.4434 Z M157.4434,167.189211 L18.5565999,167.189211 C13.1982019,167.189211 8.81078872,162.801798 8.81078872,157.4434 L8.81078872,134.24765 L42.1838987,100.87454 L70.7020842,129.392726 C72.4282795,131.118921 75.1973846,131.118921 76.9235799,129.392726 L128.421741,77.8945648 L167.189211,116.662035 L167.189211,157.4434 C167.189211,162.801798 162.801798,167.189211 157.4434,167.189211 Z M18.5565999,8.81078872 L157.4434,8.81078872 C162.801798,8.81078872 167.189211,13.1982019 167.189211,18.5565999 L167.189211,104.183081 L131.514508,68.54434 C129.788312,66.8181447 127.019207,66.8181447 125.293012,68.54434 L73.7948508,120.042501 L45.2766653,91.5243155 C43.55047,89.7981201 40.7813649,89.7981201 39.0551696,91.5243155 L8.81078872,121.768696 L8.81078872,18.5565999 C8.81078872,13.1982019 13.1982019,8.81078872 18.5565999,8.81078872 Z" id="Shape"></path>
                    <path d="M54.5,71 C66.923756,71 77,60.8876404 77,48.5 C77,36.1123596 66.8876404,26 54.5,26 C42.1123596,26 32,36.1123596 32,48.5 C32,60.8876404 42.076244,71 54.5,71 Z M54.5,34.8483146 C62.0481541,34.8483146 68.1516854,40.9879615 68.1516854,48.5 C68.1516854,56.0120385 62.0120385,62.1516854 54.5,62.1516854 C46.9879615,62.1516854 40.8483146,56.0120385 40.8483146,48.5 C40.8483146,40.9879615 46.9518459,34.8483146 54.5,34.8483146 Z" id="Shape"></path>
                </g>
            </g>
        </g>
    </g>
</svg>