<?xml version="1.0" encoding="UTF-8"?>
<svg width="107px" height="107px" viewBox="0 0 107 107" version="1.1" xmlns="http://www.w3.org/2000/svg" xmlns:xlink="http://www.w3.org/1999/xlink">
    <!-- Generator: Sketch 53.2 (72643) - https://sketchapp.com -->
    <title>medical-history 2 copy</title>
    <desc>Created with Sketch.</desc>
    <g id="Page-1" stroke="none" stroke-width="1" fill="none" fill-rule="evenodd">
        <g id="medical-history-2-copy" fill-rule="nonzero">
            <g id="medical-history">
                <rect id="Rectangle" fill="#BBDCFF" x="82" y="94" width="6" height="13"></rect>
                <rect id="Rectangle" fill="#9ABADB" x="85" y="94" width="3" height="13"></rect>
                <polygon id="Path" fill="#6E7786" points="94 82.0773481 94 85.8453039 88 98 82 98 76 85.8453039 76 82.0773481 84.64 76 85 76.2428913"></polygon>
                <polygon id="Path" fill="#393E46" points="94 81.8995913 94 85.7096116 88 98 85 98 85 76"></polygon>
                <rect id="Rectangle" fill="#6E7786" x="82" y="0" width="7" height="20"></rect>
                <rect id="Rectangle" fill="#393E46" x="85" y="0" width="4" height="20"></rect>
                <polygon id="Path" fill="#F7EA6A" points="76 13 76 25.5454545 78.7 28.6818182 76 31.8181818 76 82 94 82 94 13"></polygon>
                <rect id="Rectangle" fill="#EEDD33" x="85" y="13" width="9" height="69"></rect>
                <path d="M50.2951807,0 C48.5491898,0 47.1777108,1.37908789 47.1777108,3.13476562 L47.1777108,16.0917969 L21.8222892,16.0917969 L21.8222892,3.13476562 C21.8222892,1.37908789 20.4508102,0 18.7048193,0 L0,0 L0,107 L69,107 L69,0 L50.2951807,0 Z" id="Path" fill="#0BBE77"></path>
                <path d="M69,0 L69,107 L34,107 L34,16.0917969 L46.8614458,16.0917969 L46.8614458,3.13476562 C46.8614458,1.37908789 48.2528012,0 50.0240964,0 L69,0 Z" id="Path" fill="#41DFA0"></path>
                <rect id="Rectangle" fill="#E5E5E5" x="25" y="25" width="31" height="7"></rect>
                <rect id="Rectangle" fill="#E5E5E5" x="25" y="38" width="31" height="7"></rect>
                <rect id="Rectangle" fill="#E5E5E5" x="25" y="51" width="31" height="7"></rect>
                <rect id="Rectangle" fill="#FFFFFF" x="13" y="25" width="7" height="7"></rect>
                <rect id="Rectangle" fill="#FFFFFF" x="13" y="38" width="7" height="7"></rect>
                <rect id="Rectangle" fill="#FFFFFF" x="13" y="51" width="7" height="7"></rect>
                <rect id="Rectangle" fill="#6E7786" x="20" y="0" width="31" height="20"></rect>
                <rect id="Rectangle" fill="#393E46" x="35" y="0" width="16" height="20"></rect>
                <polygon id="Path" fill="#6E7786" points="107 26 107 51 100.8 51 100.8 32.25 76 32.25 76 26"></polygon>
                <polygon id="Path" fill="#393E46" points="107 26 107 51 100.714286 51 100.714286 32.25 85 32.25 85 26"></polygon>
                <rect id="Rectangle" fill="#FFFFFF" x="35" y="25" width="22" height="7"></rect>
                <rect id="Rectangle" fill="#FFFFFF" x="35" y="38" width="22" height="7"></rect>
                <rect id="Rectangle" fill="#FFFFFF" x="35" y="51" width="22" height="7"></rect>
            </g>
        </g>
    </g>
</svg>