<svg width="121" height="114" viewBox="0 0 121 114" fill="none" xmlns="http://www.w3.org/2000/svg">
<path d="M92.4875 35.3906V46.0078C92.4875 49.9008 89.3023 53.0859 85.4093 53.0859C81.5164 53.0859 78.3312 49.9008 78.3312 46.0078V38.9297H42.4687V46.0078C42.4687 49.9008 39.2836 53.0859 35.3906 53.0859C31.4977 53.0859 28.3125 49.9008 28.3125 46.0078V35.3906C28.3125 27.6044 34.683 21.2344 42.4687 21.2344H78.3312C86.1169 21.2344 92.4875 27.6044 92.4875 35.3906Z" fill="#D95767"/>
<path d="M92.4874 35.3906V46.0078C92.4874 49.9008 89.3022 53.0859 85.4093 53.0859C81.5163 53.0859 78.3311 49.9008 78.3311 46.0078V38.9297H60.3999V21.2344H78.3311C86.1168 21.2344 92.4874 27.6044 92.4874 35.3906Z" fill="#B73545"/>
<path d="M74.7922 14.1562C74.7922 21.9419 68.1857 28.3125 60.4 28.3125C52.6143 28.3125 46.0078 21.9419 46.0078 14.1562C46.0078 6.37007 52.6143 0 60.4 0C68.1857 0 74.7922 6.37007 74.7922 14.1562Z" fill="#B73545"/>
<path d="M74.7921 14.1562C74.7921 21.9419 68.1856 28.3125 60.3999 28.3125V0C68.1856 0 74.7921 6.37007 74.7921 14.1562Z" fill="#D95767"/>
<path d="M48.4605 110.967L57.8912 105.658C61.2625 103.712 62.4285 99.3608 60.482 95.9895C58.5355 92.6182 53.9484 91.4522 50.5771 93.3987L44.4472 96.9377L26.7519 66.2885L32.8818 62.7494C36.2531 60.803 37.4191 56.4518 35.4727 53.0805C33.5262 49.7092 29.175 48.5432 25.8037 50.4897L16.609 55.7983C9.8659 59.6915 7.5346 68.3933 11.4273 75.1362L29.1226 105.785C33.0156 112.528 41.7174 114.86 48.4605 110.967Z" fill="#D95767"/>
<path d="M48.4607 110.966L57.8914 105.658C61.2627 103.711 62.4287 99.36 60.4822 95.9887C58.5357 92.6174 53.9486 91.4514 50.5773 93.3978L44.4474 96.9369L35.5998 81.6123L20.2751 90.46L29.1228 105.785C33.0158 112.527 41.7176 114.859 48.4607 110.966Z" fill="#B73545"/>
<path d="M21.2235 106.259C27.9661 102.366 30.2979 93.6635 26.4051 86.9207C22.5122 80.178 13.8101 77.8463 7.06724 81.739C0.324148 85.6322 -2.00715 94.334 1.88558 101.077C5.77855 107.82 14.4804 110.152 21.2235 106.259Z" fill="#B73545"/>
<path d="M21.2234 106.258C27.966 102.365 30.2978 93.6628 26.4051 86.9199L1.88574 101.076C5.77847 107.819 14.4803 110.151 21.2234 106.258Z" fill="#D95767"/>
<path d="M72.3393 111.364L62.9086 106.055C59.5373 104.108 58.3713 99.7573 60.3178 96.386C62.2643 93.0147 66.8514 91.8487 70.2227 93.7951L76.3526 97.3342L94.0479 66.685L87.918 63.1459C84.5467 61.1994 83.3807 56.8483 85.3272 53.477C87.2736 50.1057 91.6248 48.9397 94.9961 50.8862L104.191 56.1947C110.934 60.0879 113.265 68.7898 109.372 75.5326L91.6772 106.182C87.7842 112.924 79.0824 115.256 72.3393 111.364Z" fill="#D95767"/>
<path d="M72.3393 111.365L62.9086 106.056C59.5373 104.11 58.3713 99.7584 60.3178 96.3871C62.2643 93.0158 66.8514 91.8498 70.2227 93.7963L76.3526 97.3353L85.2002 82.0107L100.525 90.8584L91.6772 106.183C87.7842 112.926 79.0824 115.258 72.3393 111.365Z" fill="#B73545"/>
<path d="M99.5764 106.657C92.8338 102.764 90.502 94.0619 94.3948 87.3191C98.2877 80.5765 106.99 78.2447 113.733 82.1374C120.476 86.0306 122.807 94.7325 118.914 101.475C115.021 108.218 106.32 110.55 99.5764 106.657Z" fill="#B73545"/>
<path d="M99.5764 106.657C92.8338 102.764 90.502 94.0622 94.3948 87.3193L118.914 101.476C115.021 108.218 106.319 110.55 99.5764 106.657Z" fill="#D95767"/>
</svg>
