<?xml version="1.0" encoding="UTF-8"?>
<svg width="91px" height="107px" viewBox="0 0 91 107" version="1.1" xmlns="http://www.w3.org/2000/svg" xmlns:xlink="http://www.w3.org/1999/xlink">
    <!-- Generator: Sketch 53.2 (72643) - https://sketchapp.com -->
    <title>Group 16</title>
    <desc>Created with Sketch.</desc>
    <g id="Page-1" stroke="none" stroke-width="1" fill="none" fill-rule="evenodd">
        <g id="Group-16" fill-rule="nonzero">
            <g id="medical-history-copy-5">
                <g id="medical-history-copy-2">
                    <g id="medical-history-copy">
                        <path d="M50.2951807,0 C48.5491898,0 47.1777108,1.37908789 47.1777108,3.13476562 L47.1777108,16.0917969 L21.8222892,16.0917969 L21.8222892,3.13476562 C21.8222892,1.37908789 20.4508102,0 18.7048193,0 L0,0 L0,107 L69,107 L69,0 L50.2951807,0 Z" id="Path" fill="#FF8C29"></path>
                        <path d="M69,0 L69,107 L34,107 L34,16.0917969 L46.8614458,16.0917969 L46.8614458,3.13476562 C46.8614458,1.37908789 48.2528012,0 50.0240964,0 L69,0 Z" id="Path" fill="#FFAB63"></path>
                        <rect id="Rectangle" fill="#E5E5E5" x="25" y="25" width="31" height="7"></rect>
                        <rect id="Rectangle" fill="#E5E5E5" x="25" y="38" width="31" height="7"></rect>
                        <rect id="Rectangle" fill="#E5E5E5" x="25" y="51" width="31" height="7"></rect>
                        <rect id="Rectangle" fill="#FFFFFF" x="13" y="25" width="7" height="7"></rect>
                        <rect id="Rectangle" fill="#FFFFFF" x="13" y="38" width="7" height="7"></rect>
                        <rect id="Rectangle" fill="#FFFFFF" x="13" y="51" width="7" height="7"></rect>
                        <rect id="Rectangle" fill="#6E7786" x="20" y="0" width="31" height="20"></rect>
                        <rect id="Rectangle" fill="#393E46" x="35" y="0" width="16" height="20"></rect>
                        <rect id="Rectangle" fill="#FFFFFF" x="35" y="25" width="22" height="7"></rect>
                        <rect id="Rectangle" fill="#FFFFFF" x="35" y="38" width="22" height="7"></rect>
                        <rect id="Rectangle" fill="#FFFFFF" x="35" y="51" width="22" height="7"></rect>
                    </g>
                </g>
            </g>
            <g id="analysis-2" transform="translate(41.000000, 54.000000)">
                <g id="analysis">
                    <path d="M42.6546459,43.4579439 C42.4489429,43.4579439 42.2434383,43.3794915 42.0864335,43.2226857 L34.8147232,35.9509067 C34.5010113,35.6369977 34.5010113,35.1283957 34.8147232,34.8146851 C35.1287327,34.5008752 35.6373369,34.5011728 35.9509497,34.8146851 L43.22266,42.0864641 C43.5363719,42.4003731 43.5363719,42.9089751 43.22266,43.2227849 C43.0658536,43.3794915 42.8602497,43.4579439 42.6546459,43.4579439 Z" id="Path" fill="#393E46"></path>
                    <path d="M36.6932586,6.29583303 C32.6324327,2.23595176 27.2332257,0 21.4902771,0 C15.7473285,0 10.3481215,2.23595176 6.28719784,6.29583303 C-2.09573261,14.6769114 -2.09573261,28.3138406 6.28719784,36.694919 C10.3481215,40.7547024 15.7472307,42.9906542 21.4902771,42.9906542 C27.2333235,42.9906542 32.6324327,40.7547024 36.6933564,36.694919 C40.7542801,32.6348421 42.9906542,27.2369887 42.9906542,21.4952782 C42.9906542,15.7535677 40.7541822,10.3558121 36.6932586,6.29583303 Z" id="Path" fill="#5ACAFF"></path>
                    <path d="M49.7666004,45.0313118 L43.7538391,39.0184384 C43.4423608,38.7072495 42.9376971,38.7072495 42.6263172,39.0184384 L39.0185816,42.6262412 C38.7072018,42.9377253 38.7072018,43.4423984 39.0185816,43.7536857 L45.031343,49.7665591 C45.1870329,49.9221536 45.3911422,50 45.5951531,50 C45.799164,50 46.0031749,49.9221536 46.1589633,49.7665591 L49.7666988,46.1587563 C50.0777835,45.8474691 50.0777835,45.3426975 49.7666004,45.0313118 Z" id="Path" fill="#9BAAAB"></path>
                    <path d="M40.8192714,40.6542056 L39.024105,42.4494156 C38.7053606,42.7683692 38.7053606,43.2851446 39.024105,43.6038967 L45.18102,49.7609611 C45.3404426,49.9202868 45.5494454,50 45.7583474,50 C45.9672493,50 46.1761513,49.9202868 46.3356747,49.7609611 L48.1308411,47.9657511 L40.8192714,40.6542056 Z" id="Path" fill="#687F82"></path>
                    <path d="M6.20407216,6.54205607 C-2.08433868,14.8826029 -2.0681861,28.4088025 6.25369754,36.7284347 C10.2932031,40.7666057 15.6638365,42.9906542 21.376593,42.9906542 C27.0655099,42.9906542 32.4149308,40.7845047 36.4485981,36.7779488 L6.20407216,6.54205607 Z" id="Path" fill="#229CD6"></path>
                    <path d="M31.9382841,10.5861356 C25.9244178,4.5709766 16.1391539,4.5709766 10.1251898,10.5861356 C7.21193744,13.4999638 5.60747664,17.3743032 5.60747664,21.4952537 C5.60747664,25.6162043 7.21193744,29.4905437 10.1250919,32.4043718 C13.1319761,35.4119513 17.0818321,36.9158879 21.0315902,36.9158879 C24.9814461,36.9158879 28.9312042,35.4120492 31.9381862,32.4043718 C37.9520525,26.389017 37.9520525,16.6014904 31.9382841,10.5861356 Z" id="Path" fill="#E6EAEA"></path>
                    <path d="M10.5235593,10.2803738 C7.65450484,13.1762169 6.07476636,17.0129459 6.07476636,21.0927168 C6.07476636,25.196363 7.67243095,29.0544337 10.5732458,31.9560264 C13.5673934,34.9509768 17.5005184,36.4485981 21.433546,36.4485981 C25.3445557,36.4485981 29.2550783,34.967251 32.2429907,32.0057262 L10.5235593,10.2803738 Z" id="Path" fill="#CDD4D5"></path>
                </g>
            </g>
        </g>
    </g>
</svg>