<?xml version="1.0" encoding="UTF-8"?>
<svg width="26px" height="26px" viewBox="0 0 26 26" version="1.1" xmlns="http://www.w3.org/2000/svg" xmlns:xlink="http://www.w3.org/1999/xlink">
    <!-- Generator: Sketch 52.5 (67469) - http://www.bohemiancoding.com/sketch -->
    <title>Combined Shape</title>
    <desc>Created with Sketch.</desc>
    <g id="Page-1" stroke="none" stroke-width="1" fill="none" fill-rule="evenodd">
        <g id="no-data-copy-2" transform="translate(-691.000000, -47.000000)" fill="#FE9FAA">
            <path d="M704,47 C711.16778,47 717,52.8322196 717,60 C717,67.1677804 711.16778,73 704,73 C696.83222,73 691,67.1677804 691,60 C691,52.8322196 696.83222,47 704,47 Z M702.573818,60.0000282 L698.295377,64.2784742 C697.901541,64.6723103 697.901541,65.3107868 698.295377,65.7046229 C698.689212,66.098459 699.327744,66.098459 699.721524,65.7046229 L704.000021,61.4261205 L708.278519,65.7046229 C708.672354,66.098459 709.31083,66.098459 709.704666,65.7046229 C710.098445,65.3108432 710.098445,64.6723103 709.704666,64.2784742 L705.426168,59.9999718 L709.704666,55.7215258 C710.098445,55.327746 710.098445,54.6892132 709.704666,54.2953771 C709.31083,53.901541 708.672354,53.901541 708.278519,54.2953771 L704.000021,58.5739358 L699.721524,54.2954334 C699.327688,53.9015973 698.689212,53.9015973 698.295377,54.2954334 C697.901541,54.6892132 697.901541,55.327746 698.295377,55.7215821 L702.573818,60.0000282 Z" id="Combined-Shape"></path>
        </g>
    </g>
</svg>