<svg width="111" height="111" viewBox="0 0 111 111" fill="none" xmlns="http://www.w3.org/2000/svg">
<g clip-path="url(#clip0)">
<path d="M50.2308 0.424805C48.3593 0.424805 6.39805 0.424805 4.09797 0.424805C1.95371 0.424805 0.216797 2.16172 0.216797 4.30598V107.119C0.216797 109.263 1.95371 111 4.09797 111H50.2308C52.3734 111 54.1095 109.263 54.1095 107.119V4.30598C54.1095 2.16172 52.3734 0.424805 50.2308 0.424805V0.424805Z" fill="#E6EAEA"/>
<path d="M11.9832 110.999H4.09895C1.95469 110.999 0.217773 109.262 0.217773 107.118V4.305C0.217773 2.16074 1.95469 0.423828 4.09895 0.423828H11.9832C9.83898 0.423828 8.10207 2.16074 8.10207 4.305V107.118C8.10207 109.262 9.83898 110.999 11.9832 110.999V110.999Z" fill="#CDD4D5"/>
<path d="M103.641 42.6338C102.608 42.6338 56.1242 42.6355 55.6313 42.6355C51.5426 42.6355 48.2263 45.9493 48.2263 50.0379V103.583C48.2263 107.672 51.5426 110.986 55.6313 110.986C55.8574 110.986 102.611 110.987 103.641 110.987C107.73 110.987 111.045 107.672 111.045 103.582V50.0379C111.045 45.9493 107.73 42.6338 103.641 42.6338V42.6338Z" fill="#92D9FA"/>
<path d="M54.5237 82.2289V69.0932C54.5237 68.4259 55.0648 67.8848 55.7322 67.8848H74.7078C75.376 67.8848 75.9171 68.4259 75.9171 69.0932V82.2289C75.9171 82.8963 75.376 83.4374 74.7078 83.4374H55.7322C55.0648 83.4374 54.5237 82.8963 54.5237 82.2289V82.2289Z" fill="#229CD6"/>
<path d="M83.5701 82.2289V69.0932C83.5701 68.4259 84.1112 67.8848 84.7785 67.8848H103.754C104.422 67.8848 104.964 68.4259 104.964 69.0932V82.2289C104.964 82.8963 104.422 83.4374 103.754 83.4374H84.7785C84.1112 83.4374 83.5701 82.8963 83.5701 82.2289V82.2289Z" fill="#229CD6"/>
<path d="M54.5237 103.622V90.4868C54.5237 89.8195 55.0648 89.2783 55.7322 89.2783H74.7078C75.376 89.2783 75.9171 89.8195 75.9171 90.4868V103.622C75.9171 104.29 75.376 104.831 74.7078 104.831H55.7322C55.0648 104.831 54.5237 104.29 54.5237 103.622V103.622Z" fill="#229CD6"/>
<path d="M83.5701 103.622V90.4868C83.5701 89.8195 84.1112 89.2783 84.7785 89.2783H103.754C104.422 89.2783 104.964 89.8195 104.964 90.4868V103.622C104.964 104.29 104.422 104.831 103.754 104.831H84.7785C84.1112 104.831 83.5701 104.29 83.5701 103.622Z" fill="#229CD6"/>
<path d="M90.627 77.3507H97.9058C98.839 77.3507 99.5953 76.5936 99.5953 75.6612C99.5953 74.7279 98.839 73.9717 97.9058 73.9717H90.627C89.6937 73.9717 88.9375 74.7279 88.9375 75.6612C88.9375 76.5936 89.6946 77.3507 90.627 77.3507V77.3507Z" fill="#127BAD"/>
<path d="M69.0183 73.9718H67.0688V72.0215C67.0688 71.0883 66.3126 70.332 65.3794 70.332C64.4453 70.332 63.689 71.0883 63.689 72.0215V73.9718H61.7395C60.8063 73.9718 60.05 74.7281 60.05 75.6613C60.05 76.5937 60.8063 77.3508 61.7395 77.3508H63.689V79.3003C63.689 80.2336 64.4453 80.9898 65.3794 80.9898C66.3126 80.9898 67.0688 80.2336 67.0688 79.3003V77.3508H69.0183C69.9516 77.3508 70.7078 76.5937 70.7078 75.6613C70.7078 74.7281 69.9516 73.9718 69.0183 73.9718Z" fill="#127BAD"/>
<path d="M97.9058 95.3643H90.627C89.6937 95.3643 88.9375 96.1214 88.9375 97.0537C88.9375 97.987 89.6937 98.7432 90.627 98.7432H97.9058C98.839 98.7432 99.5953 97.987 99.5953 97.0537C99.5953 96.1214 98.839 95.3643 97.9058 95.3643V95.3643Z" fill="#127BAD"/>
<path d="M69.1471 93.2864C68.4874 92.6259 67.4178 92.6259 66.7572 93.2864L65.3794 94.6651L64.0007 93.2864C63.3401 92.6259 62.2705 92.6259 61.6108 93.2864C60.9511 93.9461 60.9511 95.0157 61.6108 95.6754L62.9895 97.0541L61.6108 98.4328C60.5429 99.5007 61.3144 101.317 62.8058 101.317C63.6865 101.317 63.9643 100.858 65.3794 99.444L66.7581 100.822C67.4178 101.482 68.4874 101.482 69.1471 100.822C69.8068 100.162 69.8068 99.0925 69.1471 98.4328L67.7684 97.0541L69.1471 95.6754C69.8068 95.0157 69.8068 93.9461 69.1471 93.2864V93.2864Z" fill="#127BAD"/>
<path d="M96.0688 93.182C96.0688 94.1771 95.2618 94.9841 94.2667 94.9841C93.2717 94.9841 92.4646 94.1771 92.4646 93.182C92.4646 92.1869 93.2717 91.3799 94.2667 91.3799C95.2618 91.3799 96.0688 92.1869 96.0688 93.182Z" fill="#127BAD"/>
<path d="M96.0688 100.926C96.0688 101.922 95.2618 102.728 94.2667 102.728C93.2717 102.728 92.4646 101.922 92.4646 100.926C92.4646 99.9311 93.2717 99.124 94.2667 99.124C95.2618 99.124 96.0688 99.9311 96.0688 100.926Z" fill="#127BAD"/>
<path d="M25.6447 35.8596V38.8287C25.6447 39.7619 26.4018 40.5182 27.3342 40.5182C28.2674 40.5182 29.0237 39.7619 29.0237 38.8287V35.7377C32.2087 35.0551 34.0515 32.7 34.0515 29.1482C34.0515 24.239 30.631 22.9238 27.8821 21.8686C25.6769 21.0209 23.9349 20.3519 23.9349 18.2931C23.9349 15.9295 26.0249 15.4333 27.7788 15.4333C29.4632 15.4333 30.3812 15.9058 31.0511 16.2513C31.4313 16.447 31.7311 16.6019 32.0529 16.6019C33.0014 16.6019 33.4977 15.4612 33.4977 14.8489C33.4977 13.4245 31.1036 12.7386 29.0237 12.5429V9.09281C29.0237 8.15957 28.2674 7.40332 27.3342 7.40332C26.4018 7.40332 25.6447 8.15957 25.6447 9.09281V12.6971V12.6996C23.4522 13.1535 20.6762 14.522 20.6762 18.5396C20.6762 22.6824 23.6673 23.8646 26.3078 24.908C28.7146 25.859 30.7928 26.6805 30.7928 29.3947C30.7928 32.4179 28.3267 32.8693 26.8566 32.8693C24.5827 32.8693 23.5572 31.8624 22.8086 31.1273C22.3817 30.709 22.0455 30.3787 21.5984 30.3787C20.8032 30.3787 20.1223 31.3424 20.1223 32.1309C20.1223 33.4782 22.2784 35.4362 25.6447 35.8596Z" fill="#CDD4D5"/>
<path d="M11.5071 57.6407H42.819C43.7523 57.6407 44.5085 56.8845 44.5085 55.9512C44.5085 55.018 43.7523 54.2617 42.819 54.2617H11.5071C10.5739 54.2617 9.81763 55.018 9.81763 55.9512C9.81763 56.8845 10.5739 57.6407 11.5071 57.6407Z" fill="#CDD4D5"/>
<path d="M42.819 65.7686H11.5071C10.5739 65.7686 9.81763 66.5248 9.81763 67.458C9.81763 68.3913 10.5739 69.1475 11.5071 69.1475H42.819C43.7523 69.1475 44.5085 68.3913 44.5085 67.458C44.5085 66.5248 43.7523 65.7686 42.819 65.7686Z" fill="#CDD4D5"/>
<path d="M42.819 77.2744H11.5071C10.5739 77.2744 9.81763 78.0315 9.81763 78.9639C9.81763 79.8971 10.5739 80.6542 11.5071 80.6542H42.819C43.7523 80.6542 44.5085 79.8971 44.5085 78.9639C44.5085 78.0315 43.7523 77.2744 42.819 77.2744Z" fill="#CDD4D5"/>
<path d="M25.5032 93.6807H11.5071C10.5739 93.6807 9.81763 94.4369 9.81763 95.3702C9.81763 96.3034 10.5739 97.0596 11.5071 97.0596H25.5032C26.4356 97.0596 27.1927 96.3034 27.1927 95.3702C27.1927 94.4369 26.4365 93.6807 25.5032 93.6807Z" fill="#CDD4D5"/>
<path d="M61.9252 110.986H55.6313C51.5426 110.986 48.2263 107.672 48.2263 103.583V50.0372C48.2263 45.9485 51.5426 42.6348 55.6313 42.6348H61.9252C57.834 42.6348 54.5202 45.9485 54.5202 50.0372V103.583C54.5202 107.672 57.834 110.986 61.9252 110.986V110.986Z" fill="#5ACAFF"/>
<path d="M55.4323 61.4121C54.7032 61.4121 54.1104 60.8193 54.1104 60.0902V50.0514C54.1104 49.3223 54.7032 48.7295 55.4323 48.7295H103.642C104.37 48.7295 104.964 49.3223 104.964 50.0514V60.0902C104.964 60.8193 104.37 61.4121 103.642 61.4121H55.4323Z" fill="#E6EAEA"/>
<path d="M63.3174 61.4111H55.4332C54.7032 61.4111 54.1104 60.8183 54.1104 60.0909V50.0505C54.1104 49.323 54.7032 48.7285 55.4332 48.7285H63.3174C62.5874 48.7285 61.9946 49.323 61.9946 50.0505V60.0909C61.9946 60.8183 62.5874 61.4111 63.3174 61.4111Z" fill="#CDD4D5"/>
<path d="M93.1211 27.7864L85.3656 29.1541C85.2733 30.5506 85.0294 31.9072 84.6534 33.2063L91.4723 37.1426C92.1346 37.5253 92.3624 38.3722 91.9796 39.0344L88.7801 44.5763C88.3973 45.2386 87.5505 45.4655 86.8882 45.0827L80.0651 41.1448C79.114 42.134 78.0597 43.024 76.9156 43.7896L79.6095 51.192C79.8711 51.911 79.4994 52.7037 78.7812 52.967L78.1639 53.1923L76.681 53.7309L72.7685 55.1545C72.0495 55.4162 71.2543 55.0461 70.9935 54.3279L68.9881 48.8157L68.4952 47.4616L68.2988 46.9255C66.9251 47.0576 65.7014 47.0873 64.1855 46.9255L61.4917 54.3279C61.23 55.0461 60.4348 55.4162 59.7166 55.1545L53.7039 52.967C52.9858 52.7037 52.614 51.911 52.8748 51.192L55.5696 43.7896C54.4246 43.024 53.3703 42.134 52.4201 41.1448L45.5969 45.0827C44.9347 45.4655 44.0869 45.2386 43.7042 44.5763L40.5056 39.0344C40.1228 38.3722 40.3497 37.5253 41.0128 37.1426L47.8309 33.2063C47.4549 31.9072 47.2144 30.5506 47.1196 29.1541L39.3631 27.7864C38.6086 27.6535 38.1064 26.9353 38.2394 26.1808L39.3496 19.8801C39.4825 19.1272 40.2015 18.6225 40.9561 18.7555L48.7074 20.1232C49.2689 18.8571 49.9599 17.6656 50.7687 16.5621L45.7044 10.529C45.2133 9.94132 45.2903 9.06905 45.8764 8.57618L50.778 4.46297C51.3632 3.97179 52.2371 4.048 52.7283 4.63403L57.79 10.6662C59.0112 10.065 60.3069 9.58987 61.6585 9.25875V1.38547C61.6585 0.619904 62.2776 0 63.044 0H69.4412C70.2067 0 70.8266 0.619904 70.8266 1.38547V9.25875C72.1782 9.58987 73.4739 10.065 74.6943 10.6662L79.756 4.63403C80.2471 4.048 81.1211 3.97179 81.7071 4.46297L86.6088 8.57618C87.1948 9.06905 87.271 9.94132 86.7798 10.529L81.7164 16.5621C82.5252 17.6656 83.2162 18.8571 83.7769 20.1232L91.5307 18.7555C92.2836 18.6225 93.0017 19.1272 93.1347 19.8801L94.2458 26.1808C94.3787 26.9353 93.8757 27.6535 93.1211 27.7864V27.7864Z" fill="#229CD6"/>
<path d="M67.9438 46.9553C66.7099 47.0611 65.57 47.073 64.1846 46.9265L61.4907 54.3289C61.229 55.0471 60.4338 55.4163 59.7148 55.1555L53.7029 52.968C52.984 52.7046 52.6122 51.9111 52.8739 51.193L55.5677 43.7906C54.4236 43.025 53.3693 42.1349 52.4191 41.1458L45.5951 45.0837C44.9328 45.4665 44.086 45.2387 43.7032 44.5764L40.5046 39.0354C40.1218 38.3732 40.3488 37.5263 41.011 37.1427L47.8299 33.2073C47.4539 31.9074 47.2126 30.5516 47.1186 29.1551L39.3622 27.7874C38.6076 27.6544 38.1054 26.9363 38.2384 26.1817L39.3486 19.8811C39.4816 19.1282 40.2006 18.6235 40.9551 18.7564L48.7064 20.1241C49.2671 18.8581 49.959 17.6665 50.7677 16.5622L45.7035 10.53C45.2123 9.94145 45.2894 9.07003 45.8745 8.57716L50.7762 4.4631C51.3622 3.97192 52.2362 4.04898 52.7274 4.63416L57.7891 10.6672C59.0102 10.0659 60.3051 9.59085 61.6567 9.25973V1.38644C61.6567 0.620033 62.2766 0.000976562 63.0421 0.000976562H69.4402C70.2058 0.000976562 70.8257 0.620033 70.8257 1.38644V3.31644C66.7277 6.29486 63.4571 10.3403 61.4229 15.0438C59.9223 18.5041 59.0915 22.3226 59.0915 26.335C59.0915 31.5627 60.5032 36.4627 62.9676 40.6733C64.326 42.9996 66.0045 45.1125 67.9438 46.9553V46.9553Z" fill="#127BAD"/>
<path d="M79.6982 27.6199C79.6982 35.0511 73.6745 41.0774 66.2424 41.0774C65.1144 41.0774 64.0194 40.9376 62.9718 40.6759C57.1217 39.2143 52.7849 33.9231 52.7849 27.6199C52.7849 21.8891 56.3688 16.9934 61.4195 15.0541C62.9176 14.4799 64.5444 14.1641 66.2424 14.1641C73.6745 14.1641 79.6982 20.1878 79.6982 27.6199V27.6199Z" fill="#FED22B"/>
<path d="M62.9718 40.6755C57.1217 39.2139 52.7849 33.9227 52.7849 27.6195C52.7849 21.8887 56.3688 16.993 61.4195 15.0537C59.9214 18.5115 59.0923 22.3257 59.0923 26.3331C59.0923 31.5616 60.5049 36.4607 62.9693 40.6713C62.9693 40.6739 62.9718 40.6739 62.9718 40.6755V40.6755Z" fill="#FDC202"/>
<path d="M66.9437 25.8224C65.4498 25.2482 64.8849 24.9594 64.8849 24.1998C64.8849 23.8636 64.8849 23.0768 66.632 23.0768C67.5322 23.0768 68.0073 23.3216 68.3893 23.518C68.6738 23.6645 68.9677 23.8161 69.3386 23.8161C70.3701 23.8161 70.94 22.7542 70.94 22.0191C70.94 20.7437 69.4588 20.1594 68.0403 19.9417V18.375C68.0403 17.4418 67.2841 16.6855 66.3509 16.6855C65.4176 16.6855 64.6614 17.4418 64.6614 18.375V20.0959C62.6416 20.676 61.4475 22.1969 61.4475 24.3556C61.4475 27.4466 63.7595 28.3596 65.4481 29.0269C67.1571 29.7027 67.8532 30.0905 67.8532 31.2287C67.8532 31.642 67.8532 32.7412 66.0477 32.7412C64.8892 32.7412 64.3988 32.2602 63.9661 31.8359C63.646 31.5209 63.2827 31.1644 62.7187 31.1644C61.7905 31.1644 61.0969 32.1137 61.0969 32.9614C61.0969 34.1631 62.5484 35.4808 64.6614 35.9144V37.2025C64.6614 38.1349 65.4176 38.892 66.3509 38.892C67.2841 38.892 68.0403 38.1349 68.0403 37.2025V35.7882C70.0821 35.1599 71.2906 33.4738 71.2906 31.0729C71.2906 27.4924 68.778 26.5269 66.9437 25.8224V25.8224Z" fill="#F0A70A"/>
</g>
<defs>
<clipPath id="clip0">
<rect width="111" height="111" fill="white"/>
</clipPath>
</defs>
</svg>
