<?xml version="1.0" encoding="UTF-8"?>
<svg width="141px" height="108px" viewBox="0 0 141 108" version="1.1" xmlns="http://www.w3.org/2000/svg" xmlns:xlink="http://www.w3.org/1999/xlink">
    <!-- Generator: Sketch 53.2 (72643) - https://sketchapp.com -->
    <title>Group 9</title>
    <desc>Created with Sketch.</desc>
    <g id="Page-1" stroke="none" stroke-width="1" fill="none" fill-rule="evenodd">
        <g id="Group-9" fill-rule="nonzero">
            <g id="Group-8">
                <g id="Group-7">
                    <g id="label">
                        <path d="M140.724346,20.6969538 C140.724346,16.6538769 139.155411,12.8528308 136.30699,9.99387692 C133.458569,7.1352 129.670885,5.56061538 125.642313,5.56061538 L95.4387886,5.56061538 C93.1529883,5.56061538 91.2998454,7.42015385 91.2998454,9.71446154 C91.2995695,12.0084923 93.1527123,13.8683077 95.4387886,13.8683077 L125.642313,13.8683077 C127.459861,13.8683077 129.168417,14.5786154 130.453421,15.8685231 C131.738701,17.1584308 132.44646,18.8731385 132.44646,20.6972308 C132.44646,22.5213231 131.738701,24.2360308 130.453697,25.5259385 C129.168693,26.8155692 127.459861,27.5261538 125.642313,27.5261538 L89.4022779,27.5261538 C90.4916477,30.1704923 90.565045,33.1061538 89.7242877,35.8338462 L125.642313,35.8338462 C129.670885,35.8338462 133.458294,34.2595385 136.30699,31.4005846 C139.155687,28.5413538 140.724622,24.7400308 140.724346,20.6969538 Z" id="Path" fill="#393E46"></path>
                        <path d="M107.176832,41.0449846 L105.852922,21.7273846 C105.111775,10.9116 96.5336771,2.30289231 85.7566967,1.5588 L66.5084031,0.230123077 C63.7220665,0.0376615385 60.9889843,1.06504615 59.0141566,3.04698462 L2.82965753,59.4340615 C-0.943127202,63.2204308 -0.943127202,69.3595385 2.82965753,73.1459077 L34.5229256,104.953292 C38.2957104,108.739662 44.4127926,108.739662 48.1855773,104.953292 L104.370076,48.5664923 C106.344904,46.5842769 107.368603,43.8413538 107.176832,41.0449846 Z M84.1499589,40.0192615 C79.5606986,44.6250462 72.1199824,44.6250462 67.5307221,40.0192615 C62.9414618,35.4134769 62.9414618,27.9459692 67.5307221,23.3401846 C72.1199824,18.7344 79.5606986,18.7344 84.1499589,23.3401846 C88.7392192,27.9459692 88.7392192,35.4134769 84.1499589,40.0192615 Z" id="Shape" fill="#5ACAFF"></path>
                        <path d="M107.176832,41.0449846 L105.852922,21.7273846 C105.482348,16.3193538 103.150468,11.4654462 99.5653151,7.86876923 L84.1499589,23.3399077 C88.7392192,27.9456923 88.7392192,35.4132 84.1499589,40.0189846 C79.5606986,44.6247692 72.1199824,44.6247692 67.5307221,40.0189846 L18.6762916,89.0493231 L34.5229256,104.953015 C38.2957104,108.739385 44.4127926,108.739385 48.1855773,104.953015 L104.370076,48.5662154 C106.344904,46.5842769 107.368603,43.8413538 107.176832,41.0449846 Z" id="Path" fill="#229CD6"></path>
                        <path d="M129.78098,31.6797231 C129.781256,29.3856923 127.928114,27.5258769 125.642037,27.5258769 L75.8400646,27.5258769 C73.5542642,27.5258769 71.7011213,29.3854154 71.7011213,31.6797231 C71.7011213,32.8267385 72.164407,33.8652 72.9132798,34.6170462 C73.6621526,35.3686154 74.6968885,35.8338462 75.8400646,35.8335692 L125.642037,35.8335692 C127.928114,35.8332923 129.78098,33.9737538 129.78098,31.6797231 Z" id="Path" fill="#393E46"></path>
                    </g>
                    <path d="M43.4851682,73.4476283 C45.4860774,73.4512217 46.8887196,73.13546 47.6931371,72.5003336 C48.4975546,71.8652072 48.8988706,71.0539873 48.8970972,70.0666495 C48.8957906,69.3391375 48.7192688,68.71525 48.3675267,68.1949686 C48.0157846,67.6746871 47.54723,67.2191588 46.9618487,66.8283702 C46.3764675,66.4375816 45.7002159,66.0856088 44.9330738,65.7724412 C44.1659318,65.4592736 43.3793354,65.1590668 42.5732613,64.8718118 C41.7931729,64.5846035 41.0195343,64.2649334 40.2523222,63.912792 C39.4851101,63.5606505 38.8022223,63.1307195 38.2036381,62.6229859 C37.6050539,62.1152524 37.1167302,61.5037961 36.7386522,60.7885986 C36.3605743,60.0734012 36.1706048,59.1961641 36.1687381,58.1568612 C36.1654247,56.3120984 36.714897,54.7996279 37.8171716,53.6194042 C38.9194461,52.4391804 40.5227056,51.6950743 42.626998,51.3870635 L42.6189479,46.9050919 L45.8541679,46.910902 L45.8620081,51.2759526 C47.005478,51.3299711 48.0711379,51.4747865 49.0590196,51.710403 C50.0469012,51.9460195 50.8268612,52.1682681 51.3989229,52.3771554 L50.6637904,55.4157713 C50.0397104,55.1808081 49.2597154,54.9390729 48.3237821,54.6905584 C47.3878488,54.4420439 46.2182821,54.3165285 44.8150472,54.3140085 C43.2558972,54.3112084 42.0546071,54.6078452 41.2111409,55.2039277 C40.3676747,55.8000102 39.9469279,56.6436728 39.9488879,57.7349409 C39.9499613,58.3325401 40.0743021,58.8394144 40.3219142,59.2555789 C40.5695263,59.6717434 40.9274912,60.0426312 41.3958195,60.3682534 C41.8641478,60.6938756 42.4168635,60.9871668 43.0539831,61.2481359 C43.6911027,61.509105 44.399696,61.7831896 45.1797843,62.070398 C46.1939319,62.4619566 47.1561166,62.8664071 48.0663674,63.2837617 C48.9766183,63.7011162 49.776569,64.2027083 50.4662436,64.7885529 C51.1559182,65.3743975 51.7093572,66.0704126 52.1265772,66.876619 C52.5437972,67.6828255 52.7534308,68.6575307 52.7554842,69.800764 C52.7587975,71.6455267 52.2027822,73.1320034 51.0874214,74.2602386 C49.9720606,75.3884739 48.2453003,76.0933851 45.9070887,76.3749933 L45.9161188,81.4025962 L42.6808988,81.3967861 L42.6720787,76.4861042 C40.852977,76.4308723 39.3714451,76.2268504 38.2274384,75.8740323 C37.0834317,75.5212142 36.2253171,75.1884013 35.6530688,74.8755837 L36.6222826,71.9543088 C37.4025109,72.3194649 38.3385935,72.6589133 39.4305585,72.9726642 C40.5225235,73.2864151 41.8740466,73.4447349 43.4851682,73.4476283 Z" id="$" fill="#FFFFFF" transform="translate(44.204284, 64.153844) rotate(46.000000) translate(-44.204284, -64.153844) "></path>
                </g>
            </g>
        </g>
    </g>
</svg>