<?xml version="1.0" encoding="UTF-8"?>
<svg width="126px" height="100px" viewBox="0 0 126 100" version="1.1" xmlns="http://www.w3.org/2000/svg" xmlns:xlink="http://www.w3.org/1999/xlink">
    <!-- Generator: Sketch 53.2 (72643) - https://sketchapp.com -->
    <title>Group 5</title>
    <desc>Created with Sketch.</desc>
    <g id="Page-1" stroke="none" stroke-width="1" fill="none" fill-rule="evenodd">
        <g id="Group-5">
            <g id="Group-4">
                <path d="M105.706624,14.6509872 C104.735788,13.6010002 103.35912,13 101.914731,13 L78,13 L78,86 L88.909046,86 C88.909046,78.8867454 94.7694019,73.1175326 102,73.1175326 C109.230598,73.1175326 115.090954,78.8867454 115.090954,86 L126,86 L126,38.5693847 C125.999753,37.313146 125.524221,36.1021463 124.666584,35.174743 L105.706624,14.6509872 Z" id="Path" fill="#0BBE77" fill-rule="nonzero"></path>
                <path d="M120.729092,36.3746371 L87,36.3746371 L87,18 L103.754499,18 L120.729092,36.3746371 Z" id="Combined-Shape" fill="#ECECEC" fill-rule="nonzero"></path>
                <path d="M1,6.05582348 L1,0 L7.22688354,0 L72.772871,0 C76.211279,0 78.9997546,2.7118727 78.9997546,6.05582348 L79,59 L1,59 L1,6.05582348 Z" id="Combined-Shape" fill="#77F0C0" fill-rule="nonzero"></path>
                <path d="M47,59 L47,-2.13162821e-14 L72.772871,-7.10542736e-15 C76.211279,-7.10542736e-15 78.9997546,2.7118727 78.9997546,6.05582348 L79,59 L47,59 Z" id="Combined-Shape" fill="#41DFA0" fill-rule="nonzero"></path>
                <path d="M1,61 L1,80.7937809 C1,83.6687655 3.42447623,86 6.41445087,86 L11.8333197,86 C11.8333197,79.0957416 17.6529953,73.499882 24.8334015,73.499882 C32.0138077,73.499882 37.8334833,79.0957416 37.8334833,86 L79,86 L79,61 L1,61 Z" id="Path" fill="#16A46C" fill-rule="nonzero"></path>
                <path d="M126,60 L113.142926,60 C111.95786,60 111,60.8939737 111,62 C111,63.1060263 111.95786,64 113.142926,64 L126,64 L126,60 Z" id="Path" fill="#FFE8E6" fill-rule="nonzero"></path>
                <g id="Group" transform="translate(0.000000, 28.000000)" fill="#FFFFFF" fill-rule="nonzero">
                    <path d="M32.6372535,15.8773333 C33.8383451,15.8773333 34.813169,14.8751746 34.813169,13.6353016 C34.813169,12.3954286 33.8383451,11.3932698 32.6372535,11.3932698 L0,11.3932698 L0,15.8770794 L32.6372535,15.8770794 L32.6372535,15.8773333 Z" id="Path"></path>
                    <path d="M23.933838,4.66768254 C25.1349296,4.66768254 26.1097535,3.66552381 26.1097535,2.42565079 C26.1097535,1.18577778 25.1349296,0.183619048 23.933838,0.183619048 L0,0.183619048 L0,4.66742857 L23.933838,4.66742857 L23.933838,4.66768254 Z" id="Path"></path>
                </g>
                <circle id="Oval" fill="#6E7786" cx="102" cy="86" r="14"></circle>
                <circle id="Oval-Copy-3" fill="#6E7786" cx="24" cy="86" r="14"></circle>
                <path d="M102,72 C109.731986,72 116,78.2680135 116,86 C116,93.7319865 109.731986,100 102,100 L102,72 Z" id="Combined-Shape" fill="#393E46"></path>
                <path d="M24,72 C31.7319865,72 38,78.2680135 38,86 C38,93.7319865 31.7319865,100 24,100 L24,72 Z" id="Combined-Shape-Copy-2" fill="#393E46"></path>
                <circle id="Oval-Copy" fill="#FFFFFF" cx="102" cy="86" r="5"></circle>
                <circle id="Oval-Copy-4" fill="#FFFFFF" cx="24" cy="86" r="5"></circle>
            </g>
        </g>
    </g>
</svg>