<?xml version="1.0" encoding="UTF-8"?>
<svg width="144px" height="105px" viewBox="0 0 144 105" version="1.1" xmlns="http://www.w3.org/2000/svg" xmlns:xlink="http://www.w3.org/1999/xlink">
    <!-- Generator: Sketch 53.2 (72643) - https://sketchapp.com -->
    <title>team 2 copy 2</title>
    <desc>Created with Sketch.</desc>
    <g id="Page-1" stroke="none" stroke-width="1" fill="none" fill-rule="evenodd">
        <g id="setting" transform="translate(-1534.000000, -1158.000000)" fill-rule="nonzero">
            <g id="team-2-copy-2" transform="translate(1534.000000, 1158.000000)">
                <g id="team-2-copy">
                    <g id="team">
                        <path d="M104,44.0911173 L104,45.7497661 C104,47.7822191 104.332768,49.8012197 104.985226,51.7292022 L108.8,63 L116,63 L116,37 L111.2,37 C107.223638,37.0002862 104,40.1747597 104,44.0911173 Z" id="Path" fill="#5A4146"></path>
                        <path d="M136.282029,49.1802696 L132.333616,63 L113.666667,46.6666667 C111.089206,46.6666667 109,44.5771777 109,42 L109,42 C109,38.1340922 112.134092,35 116,35 L132.333333,35 C134.910793,35 137,37.089489 137,39.6666667 L137,44.0524744 C137.000282,45.7865101 136.758416,47.5123517 136.282029,49.1802696 Z" id="Path" fill="#694B4B"></path>
                        <rect id="Rectangle" fill="#E6AF78" x="114" y="70" width="14" height="10"></rect>
                        <path d="M114,74.5432037 C116.164083,75.4752658 118.523977,76 121,76 C123.476023,76 125.835917,75.4752658 128,74.5432037 L128,70 L114,70 L114,74.5432037 L114,74.5432037 Z" id="Path" fill="#D29B6E"></path>
                        <path d="M138.995344,79.1790578 L127.899262,76.0002793 L120.999861,80.5913827 L114.099903,76 L103.004378,79.1790578 C100.04208,80.0277933 98,82.7426857 98,85.8318149 L98,102.693696 C98,103.967497 99.0296741,105 100.299986,105 L141.700014,105 C142.970326,105 144,103.967497 144,102.693696 L144,85.8318149 C144,82.7424064 141.957641,80.0277933 138.995344,79.1790578 Z" id="Path" fill="#D5DCED"></path>
                        <polygon id="Path" fill="#AFB9D2" points="123 105 118 105 119.25 80 121.75 80"></polygon>
                        <path d="M120.999859,73 L120.999859,73 C113.267839,73 107,66.6433863 107,58.8024931 L107,56.0302141 C107,54.7751668 107.49164,53.5714103 108.366701,52.683708 L112.597909,48.3927645 C113.49388,47.4841447 114.719023,46.9617815 115.985418,47.0021837 C123.444211,47.2408719 130.046308,48.8612582 133.655338,52.4358505 C134.538876,53.3109451 135,54.5350459 135,55.7872278 L135,58.8024931 C135,66.6436729 128.731879,73 120.999859,73 Z" id="Path" fill="#F0C087"></path>
                        <path d="M114.016214,56.4526636 C114.016214,53.7698159 116.281884,51.6372815 118.974349,51.8079518 C123.695723,52.1076106 130.701741,52.8922436 135,54.9481735 C134.859812,53.9669599 134.435848,53.0406649 133.717348,52.3427752 C130.099922,48.8293881 123.482466,47.2367465 116.006322,47.0021452 L116.006038,47.0024268 L116.006038,47.0021452 C114.73698,46.9624348 113.508704,47.4761356 112.610932,48.3689162 L108.370164,52.5861072 C107.492783,53.4583284 107,54.6414739 107,55.8753134 L107,58.6001247 C107,64.9639319 111.288064,70.3220232 117.144538,72 C115.195212,69.6083621 114.016497,66.572345 114.016497,63.2515957 L114.016214,56.4526636 L114.016214,56.4526636 Z" id="Path" fill="#E6AF78"></path>
                        <path d="M135,92.7704431 C135,90.9452315 135.711129,89.1950171 136.976992,87.9045083 L142.768739,82 C143.542807,83.1280147 144,84.486021 144,85.9356907 L144,102.706194 C144,103.973093 142.992704,105 141.75,105 L135,105 L135,92.7704431 L135,92.7704431 Z" id="Path" fill="#C7CFE2"></path>
                        <path d="M121.75,85 L119.25,85 C118.55976,85 118,84.4402398 118,83.75 L118,80 L123,80 L123,83.75 C123,84.4402398 122.440543,85 121.75,85 Z" id="Path" fill="#959CB5"></path>
                        <g id="Group" transform="translate(111.000000, 74.000000)" fill="#C7CFE2">
                            <path d="M9.47769565,6.5025 L5.62344928,9.47222222 C4.95955072,9.98388889 3.99963768,9.77888889 3.59843478,9.03944444 L0.140985507,2.67 L1.53266667,0.528611111 C1.84134783,0.0536111111 2.49918841,-0.0272222222 2.91195652,0.358888889 L9.47769565,6.5025 Z" id="Path"></path>
                            <path d="M9.47769565,6.5025 L13.331942,9.4725 C13.9958406,9.98416667 14.9557536,9.77916667 15.3569565,9.03972222 L18.8144058,2.67027778 L17.4227246,0.528888889 C17.1140435,0.0538888889 16.4562029,-0.0269444444 16.0434348,0.359166667 L9.47769565,6.5025 Z" id="Path"></path>
                        </g>
                        <path d="M41.8442765,71.4269838 C39.8668435,66.1438192 38.2985153,57.0617377 37.9597429,52.3332235 C37.3152629,43.33506 30.5905336,36 21.500002,36 C12.4094704,36 5.6847411,43.3353426 5.04026102,52.3332235 C4.70148867,57.0614551 3.13316041,66.1438192 1.15572741,71.4269838 C0.720002836,72.5916647 1.2229775,73.8758653 2.36034474,74.3957617 C4.47928314,75.3640688 8.99708848,77.2611255 14.4457472,78 L28.5539765,78 C33.9771363,77.2594302 38.5266052,75.3612432 40.639379,74.3957617 C41.7770264,73.8758653 42.2800011,72.5916647 41.8442765,71.4269838 Z" id="Path" fill="#5A4146"></path>
                        <path d="M40.6100001,74.3957617 C41.7720115,73.8758653 42.2862975,72.5916647 41.8407357,71.4269838 C39.8202447,66.1438192 38.217253,57.0617377 37.8713413,52.3332235 C37.2130209,43.33506 30.3406023,36 21.0510968,36 C21.0276161,36 21.0044216,36 20.9809409,36.0002826 C13.8528111,36.0288203 11.3337833,45.6211914 17.469994,49.2002826 C17.8385275,49.4153049 18.0747669,49.5187191 18.0747669,49.5187191 L23.4492845,78 L28.2596912,78 C33.8017241,77.2588651 38.4509152,75.3609607 40.6100001,74.3957617 Z" id="Path" fill="#694B4B"></path>
                        <path d="M38.130445,82.816578 L30.579515,79.075049 C28.9983518,78.291515 27.9995291,76.6897228 27.9998116,74.9378325 L28.0003767,68 L13.9999058,68 L13.9999058,74.9381126 C13.9999058,76.6900028 13.0013657,78.2912349 11.4202025,79.074769 L3.86927243,82.816578 C1.49781022,83.991599 0,86.3937272 0,89.0212826 L0,102.687482 C0,103.964436 1.04459619,105 2.33331764,105 L39.6666824,105 C40.9554038,105 42,103.964436 42,102.687482 L42,89.0215626 C42,86.3937272 40.5019072,83.991599 38.130445,82.816578 Z" id="Path" fill="#E6AF78"></path>
                        <path d="M21.0005551,77 C23.4686942,77 25.8327452,76.5005752 28,75.6115282 C27.9430985,75.3278942 27.8767596,75.0458949 27.8767596,74.7502725 L27.8773147,68 L14.1237956,68 L14.1237956,74.7505449 C14.1237956,75.0478021 14.0574567,75.3311637 14,75.6158876 C16.1686427,76.5003027 18.5315833,77 21.0005551,77 Z" id="Path" fill="#D29B6E"></path>
                        <path d="M38.130445,82.682083 L32.7512126,80.0002817 C30.2568401,83.8408443 25.9306805,86.387978 21.0001413,86.387978 C16.0696021,86.387978 11.7431599,83.8408443 9.24878738,80 L3.86955498,82.682083 C1.49809277,83.864228 0,86.28092 0,88.9244058 L0,102.673462 C0,103.958439 1.04459619,105 2.33331764,105 L39.6666824,105 C40.9554038,105 42,103.958439 42,102.673462 L42,88.9246876 C42,86.28092 40.5019072,83.864228 38.130445,82.682083 Z" id="Path" fill="#D5DCED"></path>
                        <path d="M20.9702829,72 L20.9702829,72 C13.8185443,72 7.91364737,66.6765771 7.0208156,59.7858591 C6.89136209,58.7874341 7.37255441,57.8085473 8.27361897,57.3552068 C9.352966,56.8121044 10.9214542,55.8963624 12.4232285,54.5598435 C14.0956202,53.0715503 15.0767416,51.5019901 15.6308934,50.3498088 C16.1081113,49.3576134 17.2050595,48.7963887 18.2741865,49.0685062 C26.5285511,51.1684266 32.1481393,55.4518 34.187032,57.2006011 C34.7343706,57.6700817 35.0497716,58.3624098 34.9935615,59.0805056 C34.425499,66.3096007 28.3641791,72 20.9702829,72 Z" id="Path" fill="#F0C087"></path>
                        <path d="M34.1872385,57.2579409 C32.1485874,55.4969119 26.5285988,51.1835886 18.2740632,49.0689852 C17.204914,48.794965 16.1079431,49.3601138 15.6307154,50.3592468 C15.2111183,51.2380505 14.5175624,52.3575128 13.4884425,53.5003568 C13.4881586,53.5032082 13.4873069,53.5054893 13.487023,53.5083407 C13.167641,53.8718951 12.8275346,54.2363049 12.4232678,54.5990039 C10.9214625,55.9451531 9.35294171,56.867013 8.27357231,57.4139128 C7.37248908,57.8704231 6.89157068,58.8564396 7.02074298,59.8618457 C7.8227468,66.0935956 12.6779218,71.0539032 18.837879,72 C16.0310075,70.0821437 13.9372807,67.4445922 13.9372807,62.7426221 L13.9372807,59.3848053 C14.469868,58.9898854 15.006146,58.5961061 15.544979,58.1130778 C16.8480578,56.9451415 17.9856257,55.59443 18.8977808,54.1402125 C25.2124609,56.119374 29.4935998,59.4158856 31.1166285,60.8176373 C31.5609244,61.2088503 32.6635732,62.229654 33.9535928,63.4452088 C34.5086078,62.1036218 34.8756843,60.6642316 34.9935008,59.1515602 C35.0499959,58.4281583 34.7345884,57.7309893 34.1872385,57.2579409 Z" id="Path" fill="#E6AF78"></path>
                        <path d="M1.37157907,85 C0.504874062,86.173658 0,87.6133489 0,89.1381036 L0,102.704389 C0,103.972285 1.00729596,105 2.25,105 L9,105 L9,93.4329914 C9,92.0383343 8.37851175,90.7190115 7.31100145,89.8478025 L1.37157907,85 Z" id="Path" fill="#C7CFE2"></path>
                        <path d="M105.881998,79.1717785 L86.4410772,72 L72.5,76.7144896 L58.5589228,72.0002854 L39.1180024,79.1720639 C35.4450626,80.5270123 33,84.0680886 33,88.0327469 L33,102.642898 C33,103.94447 34.0402067,105 35.3235129,105 L109.676487,105 C110.959793,105 112,103.94447 112,102.642898 L112,88.0327469 C112,84.0678032 109.555219,80.5267269 105.881998,79.1717785 Z" id="Path" fill="#E67481"></path>
                        <polygon id="Path" fill="#707487" points="70.142922 82 68 105 77 105 74.857078 82"></polygon>
                        <path d="M74.4000553,85 L69.6002214,85 C68.7163766,85 68,84.2569091 68,83.3401048 L68,77 L76,77 L75.9999999,83.3401048 C76.0002767,84.2566219 75.2839001,85 74.4000553,85 Z" id="Path" fill="#5B5D6E"></path>
                        <path d="M109.488375,82 C111.063898,83.6797437 112,85.9168761 112,88.3165101 L112,102.682318 C112,103.962404 110.955397,105 109.666667,105 L98,105 L98,97.251568 C98,94.7927151 98.9832889,92.4346187 100.733713,90.6962172 L109.488375,82 Z" id="Path" fill="#B73545"></path>
                        <path d="M98,23.9973965 L98,4.624965 C98,2.07053713 95.924102,0 93.3636874,0 L65.5455311,0 C55.3033114,0 47,8.28270857 47,18.50014 L47,23.9973965 C47,26.4829371 47.4017052,28.9522361 48.1896762,31.3100833 L48.9613657,33.6194855 C49.1977289,34.3268397 49.3181563,35.0675174 49.3181563,35.8132356 L49.3181563,37 L95.681563,37 L95.681563,35.8132356 C95.681563,35.0675174 95.8019903,34.3268397 96.0383536,33.6194855 L96.810043,31.3100833 C97.5982948,28.951956 98,26.4826571 98,23.9973965 Z" id="Path" fill="#5A4146"></path>
                        <path d="M58,9.39449625 C58,14.5829196 62.1726383,18.7889925 67.3198182,18.7889925 L68.6102247,18.7889925 L69.2330646,37 L94.7058824,37 L94.7058824,35.8132266 C94.7058824,35.0675027 94.8250609,34.3268194 95.0589731,33.6194599 L95.8226604,31.3100403 C96.6024604,28.9521752 97,26.4828575 97,23.9972981 L97,4.625 C97,2.0705528 94.9456285,0 92.4117647,0 L67.3198182,0 C62.1726383,-3.97948674e-15 58,4.2060729 58,9.39449625 Z" id="Path" fill="#694B4B"></path>
                        <rect id="Rectangle" fill="#E6AF78" x="58" y="56" width="28" height="21"></rect>
                        <path d="M58.0002826,64.1154759 C62.122143,66.571567 66.8941542,68 72.0001413,68 C77.1061283,68 81.8784222,66.571567 86,64.1154759 L86,56 L58,56 L58.0002826,64.1154759 L58.0002826,64.1154759 Z" id="Path" fill="#D29B6E"></path>
                        <path d="M72,76.7008833 L64.5310149,84.1633167 C63.5271343,85.1663167 61.8678955,85.0532667 61.0097761,83.9233333 L53.2654328,73.7278667 L55.2910597,69.46285 C55.8888507,68.2042833 57.4479851,67.7430167 58.6350597,68.4740167 L72,76.7008833 Z" id="Path" fill="#B73545"></path>
                        <path d="M72,76.7008833 L79.4689851,84.1633167 C80.4728657,85.1663167 82.1321045,85.0532667 82.9902239,83.9233333 L90.7345672,73.7278667 L88.7089403,69.46285 C88.1111493,68.2042833 86.5520149,67.7430167 85.3649403,68.4740167 L72,76.7008833 Z" id="Path" fill="#B73545"></path>
                        <path d="M72.0004178,63 L72.0004178,63 C59.297701,63 49,52.5728093 49,39.7103607 L49,36.9818002 C49,35.7465449 49.4846239,34.5617714 50.3471988,33.688068 L52.2525506,31.7587571 C53.1151254,30.8853357 53.5997493,29.7005623 53.5997493,28.4650249 L53.5997493,22.8821221 C53.5997493,21.8036709 54.3149874,20.8667946 55.3513584,20.6188975 C60.7911225,19.3179311 77.7187014,16.2362793 89.2385459,24.8153813 C89.9866492,25.3723743 90.4002507,26.2875349 90.4002507,27.2277955 L90.4002507,28.4650249 C90.4002507,29.7002803 90.8848746,30.8850537 91.7474494,31.7587571 L93.6528012,33.688068 C94.5153761,34.5614894 95,35.7462628 95,36.9818002 L95,39.7103607 C95.0008356,52.5728093 84.7031346,63 72.0004178,63 Z" id="Path" fill="#F0C087"></path>
                        <path d="M89.8217481,24.8367204 C81.6022438,18.7766516 70.6840636,18.514365 63.0002824,19.3439953 C59.7591021,19.6938053 57.0810526,20.2345238 55.4439331,20.6220056 C54.3925486,20.8709797 53.6669492,21.8119261 53.6669492,22.8950625 L53.6669492,28.5019361 C53.6669492,29.7428411 53.1753047,30.9327616 52.2999515,31.8102606 L50.3669976,33.7479531 C49.4916445,34.6254522 49,35.8153727 49,37.0562777 L49,39.7964088 C49,51.7562285 57.9597964,61.6021762 69.5140063,63 C65.4878903,58.7968983 62.9999998,53.1010851 62.9999998,46.813569 L62.9999998,29.7164991 C62.9999998,27.3460053 64.7583351,25.364976 67.1043834,25.0701159 C72.7040442,24.3662472 82.9601997,23.9430762 90.9999994,28.5025026 L90.9999994,27.2596149 C91.0005645,26.3152696 90.5801238,25.3958499 89.8217481,24.8367204 Z" id="Path" fill="#E6AF78"></path>
                        <path d="M34.5116251,82 C32.9361024,83.6797437 32,85.9168761 32,88.3165101 L32,102.682318 C32,103.962404 33.0446032,105 34.3333333,105 L46,105 L46,97.251568 C46,94.7927151 45.0167111,92.4346187 43.2662872,90.6962172 L34.5116251,82 Z" id="Path" fill="#B73545"></path>
                    </g>
                </g>
            </g>
        </g>
    </g>
</svg>