<svg xmlns="http://www.w3.org/2000/svg" width="113" height="25" viewBox="0 0 113 25">
    <g fill="#37549C" fill-rule="evenodd">
        <path d="M18.485 7.49c-.004.047 0 .095 0 .143v9.176c0 .048-.003.096 0 .144 0 .929-.757 1.682-1.693 1.682a1.69 1.69 0 0 1-1.694-1.779V7.633 7.49C15.098 3.353 11.72 0 7.551 0 3.382.001.003 3.353.004 7.49A1.974 1.974 0 0 0 0 7.633v13.902c0 1.604 1.311 2.904 2.928 2.904 1.616 0 2.928-1.3 2.928-2.904V7.633c0-.05-.002-.097-.003-.144 0-.93.759-1.683 1.696-1.683A1.69 1.69 0 0 1 9.24 7.632l.001 9.176c0 .048.002.097 0 .144 0 3.123 1.927 5.798 4.665 6.92a7.55 7.55 0 0 0 2.883.567c4.168 0 7.547-3.352 7.547-7.486.002-.048 0-.097 0-.144V7.585v-.101c.002-.928.781-1.678 1.716-1.678.937 0 1.696.754 1.698 1.683a1.953 1.953 0 0 0-.005.144v13.902c0 1.604 1.312 2.904 2.928 2.904 1.617 0 2.928-1.3 2.928-2.904V7.633a4.8 4.8 0 0 0-.003-.144c0-4.136-3.38-7.488-7.548-7.488s-7.566 3.352-7.566 7.488zM77.914 11.595l2.438-2.713 7.278-8.1h-7.278l-8.58 9.55V.782h-5.838v22.877h5.837V13.005l8.581 10.654h7.278l-7.278-9.036zM56.196 14.838a6.557 6.557 0 0 1-1.367 2.23 6.813 6.813 0 0 1-2.176 1.552c-.847.387-1.807.58-2.883.58s-2.037-.193-2.884-.58a6.805 6.805 0 0 1-2.176-1.552 6.536 6.536 0 0 1-1.368-2.23 7.502 7.502 0 0 1-.464-2.619c0-.905.153-1.777.464-2.619a6.552 6.552 0 0 1 1.368-2.23 6.803 6.803 0 0 1 2.176-1.552c.847-.387 1.808-.582 2.884-.582 1.075 0 2.036.196 2.883.582a6.822 6.822 0 0 1 2.176 1.552 6.563 6.563 0 0 1 1.367 2.23 7.52 7.52 0 0 1 .466 2.62 7.52 7.52 0 0 1-.466 2.618m2.615-11.493c-1.14-1.067-2.492-1.89-4.056-2.472C53.19.291 51.529 0 49.769 0c-1.759 0-3.422.29-4.986.873-1.563.582-2.916 1.405-4.056 2.472-1.142 1.066-2.046 2.352-2.712 3.855-.669 1.503-1.003 3.177-1.003 5.02 0 1.841.334 3.515 1.003 5.018.666 1.503 1.57 2.789 2.712 3.855 1.14 1.067 2.493 1.892 4.056 2.473 1.564.582 3.227.873 4.986.873 1.76 0 3.421-.29 4.986-.873 1.564-.58 2.915-1.406 4.056-2.473 1.14-1.066 2.044-2.352 2.712-3.855.669-1.502 1.003-3.176 1.003-5.019 0-1.842-.334-3.516-1.003-5.02-.668-1.502-1.571-2.788-2.712-3.854"/>
        <path d="M100.029 19.191c-3.95 0-6.465-3.383-6.465-7.013 0-3.588 2.598-6.929 6.465-6.929 4.033 0 6.32 3.177 6.32 6.93 0 3.795-2.246 7.012-6.32 7.012zM112.834.781h-5.856v3.706c-1.83-2.731-4.593-4.486-7.994-4.486-6.726 0-11.354 5.741-11.354 12.023 0 6.576 4.43 12.416 11.504 12.416 3.301 0 6.063-1.755 7.844-4.34v3.559h5.856V.781z"/>
    </g>
</svg>
